<svg xmlns="http://www.w3.org/2000/svg" xmlns:xlink="http://www.w3.org/1999/xlink" xmlns:serif="http://www.serif.com/" width="100%" height="100%" viewBox="0 0 514 514" xml:space="preserve" style="fill-rule:evenodd;clip-rule:evenodd;stroke-miterlimit:10;">    <g transform="matrix(4.16667,0,0,4.16667,0,0)">        <g>            <g id="Layer-1">                <g>                    <clipPath id="_clip1">                        <path d="M123.307,61.654C123.307,95.704 95.704,123.307 61.654,123.307C27.603,123.307 0,95.704 0,61.654C0,27.603 27.603,0 61.654,0C95.704,0 123.307,27.603 123.307,61.654"></path>                    </clipPath>                    <g clip-path="url(#_clip1)">                        <g transform="matrix(1,0,0,-1,0,123.307)">                            <path d="M123.307,61.654C123.307,27.603 95.704,0 61.654,0C27.603,0 0,27.603 0,61.654C0,95.704 27.603,123.307 61.654,123.307C95.704,123.307 123.307,95.704 123.307,61.654Z" style="fill:none;fill-rule:nonzero;stroke:black;stroke-width:1.13px;"></path>                        </g>                    </g>                </g>            </g>            <g id="Layer-11" serif:id="Layer-1">                <g transform="matrix(0.103404,0.994639,-0.994639,0.103404,4.2423,63.1498)">                    <text x="0px" y="0px" style="font-family:'ArialMT', 'Arial', sans-serif;font-size:15.999px;">1</text>                </g>                <g transform="matrix(0.258808,0.965929,-0.965929,0.258808,5.194,72.1712)">                    <text x="0px" y="0px" style="font-family:'ArialMT', 'Arial', sans-serif;font-size:16px;">9</text>                </g>                <g transform="matrix(0.423416,0.905935,-0.905935,0.423416,7.8979,81.865)">                    <text x="0px" y="0px" style="font-family:'ArialMT', 'Arial', sans-serif;font-size:15.999px;">5</text>                </g>                <g transform="matrix(0.572616,0.819824,-0.819824,0.572616,12.1648,90.7943)">                    <text x="0px" y="0px" style="font-family:'ArialMT', 'Arial', sans-serif;font-size:16px;">9</text>                </g>                <g transform="matrix(0.785085,0.619388,-0.619388,0.785085,21.6548,103.032)">                    <text x="0px" y="0px" style="font-family:'ArialMT', 'Arial', sans-serif;font-size:16px;">H</text>                </g>                <g transform="matrix(0.890126,0.455714,-0.455714,0.890126,31.5972,110.588)">                    <text x="0px" y="0px" style="font-family:'ArialMT', 'Arial', sans-serif;font-size:16px;">e</text>                </g>                <g transform="matrix(0.955954,0.293517,-0.293517,0.955954,40.5929,115.082)">                    <text x="0px" y="0px" style="font-family:'ArialMT', 'Arial', sans-serif;font-size:15.999px;">d</text>                </g>                <g transform="matrix(0.992182,0.124798,-0.124798,0.992182,50.0972,117.912)">                    <text x="0px" y="0px" style="font-family:'ArialMT', 'Arial', sans-serif;font-size:16px;">d</text>                </g>                <g transform="matrix(0.998779,-0.0494039,0.0494039,0.998779,60.0367,119.063)">                    <text x="0px" y="0px" style="font-family:'ArialMT', 'Arial', sans-serif;font-size:15.999px;">e</text>                </g>                <g transform="matrix(0.977138,-0.212608,0.212608,0.977138,69.9193,118.458)">                    <text x="0px" y="0px" style="font-family:'ArialMT', 'Arial', sans-serif;font-size:15.999px;">s</text>                </g>                <g transform="matrix(0.929226,-0.369511,0.369511,0.929226,78.6765,116.506)">                    <text x="0px" y="0px" style="font-family:'ArialMT', 'Arial', sans-serif;font-size:16px;">h</text>                </g>                <g transform="matrix(0.850489,-0.525993,0.525993,0.850489,87.9904,112.687)">                    <text x="0px" y="0px" style="font-family:'ArialMT', 'Arial', sans-serif;font-size:16px;">e</text>                </g>                <g transform="matrix(0.777403,-0.629003,0.629003,0.777403,96.2916,107.285)">                    <text x="0px" y="0px" style="font-family:'ArialMT', 'Arial', sans-serif;font-size:16px;">i</text>                </g>                <g transform="matrix(0.662052,-0.749458,0.749458,0.662052,100.149,104.559)">                    <text x="0px" y="0px" style="font-family:'ArialMT', 'Arial', sans-serif;font-size:15.999px;">m</text>                </g>                <g transform="matrix(0.405498,-0.914096,0.914096,0.405498,112.186,88.9361)">                    <text x="0px" y="0px" style="font-family:'ArialMT', 'Arial', sans-serif;font-size:16px;">e</text>                </g>                <g transform="matrix(0.297204,-0.954814,0.954814,0.297204,115.669,80.791)">                    <text x="0px" y="0px" style="font-family:'ArialMT', 'Arial', sans-serif;font-size:16px;">.</text>                </g>                <g transform="matrix(0.15211,-0.988364,0.988364,0.15211,117.431,75.6429)">                    <text x="0px" y="0px" style="font-family:'ArialMT', 'Arial', sans-serif;font-size:15.999px;">V</text>                </g>                <g transform="matrix(0.0665987,-0.99778,0.99778,0.0665987,118.644,67.6778)">                    <text x="0px" y="0px" style="font-family:'ArialMT', 'Arial', sans-serif;font-size:16px;">.</text>                </g>            </g>            <g id="Layer-12" serif:id="Layer-1">                <g>                    <clipPath id="_clip2">                        <path d="M103.465,61.654C103.465,84.746 84.746,103.465 61.654,103.465C38.562,103.465 19.843,84.746 19.843,61.654C19.843,38.562 38.562,19.843 61.654,19.843C84.746,19.843 103.465,38.562 103.465,61.654"></path>                    </clipPath>                    <g clip-path="url(#_clip2)">                        <g transform="matrix(1,0,0,-1,0,123.307)">                            <path d="M103.465,61.653C103.465,38.561 84.746,19.842 61.654,19.842C38.562,19.842 19.843,38.561 19.843,61.653C19.843,84.745 38.562,103.464 61.654,103.464C84.746,103.464 103.465,84.745 103.465,61.653Z" style="fill:none;fill-rule:nonzero;stroke:black;stroke-width:1.13px;"></path>                        </g>                    </g>                </g>            </g>            <g id="Layer-13" serif:id="Layer-1">                <g transform="matrix(0.179801,-0.983703,0.983703,0.179801,15.5594,56.0729)">                    <text x="0px" y="0px" style="font-family:'ArialMT', 'Arial', sans-serif;font-size:16px;">•</text>                </g>                <g transform="matrix(0.453921,-0.891042,0.891042,0.453921,18.1386,44.9689)">                    <text x="0px" y="0px" style="font-family:'ArialMT', 'Arial', sans-serif;font-size:15.999px;">T</text>                </g>                <g transform="matrix(0.559583,-0.828774,0.828774,0.559583,22.2503,37.1898)">                    <text x="0px" y="0px" style="font-family:'ArialMT', 'Arial', sans-serif;font-size:16px;">i</text>                </g>                <g transform="matrix(0.649531,-0.760336,0.760336,0.649531,23.8166,34.5902)">                    <text x="0px" y="0px" style="font-family:'ArialMT', 'Arial', sans-serif;font-size:15.999px;">s</text>                </g>                <g transform="matrix(0.763413,-0.645911,0.645911,0.763413,28.6637,28.8546)">                    <text x="0px" y="0px" style="font-family:'ArialMT', 'Arial', sans-serif;font-size:16px;">c</text>                </g>                <g transform="matrix(0.863296,-0.504698,0.504698,0.863296,34.4209,23.8911)">                    <text x="0px" y="0px" style="font-family:'ArialMT', 'Arial', sans-serif;font-size:16px;">h</text>                </g>                <g transform="matrix(0.922707,-0.385503,0.385503,0.922707,41.7328,19.7507)">                    <text x="0px" y="0px" style="font-family:'ArialMT', 'Arial', sans-serif;font-size:16px;">t</text>                </g>                <g transform="matrix(0.966174,-0.257893,0.257893,0.966174,45.4038,18.0239)">                    <text x="0px" y="0px" style="font-family:'ArialMT', 'Arial', sans-serif;font-size:16px;">e</text>                </g>                <g transform="matrix(0.996803,-0.0799002,0.0799002,0.996803,53.5187,15.8084)">                    <text x="0px" y="0px" style="font-family:'ArialMT', 'Arial', sans-serif;font-size:16px;">n</text>                </g>                <g transform="matrix(0.994978,0.100098,-0.100098,0.994978,61.8656,15.0961)">                    <text x="0px" y="0px" style="font-family:'ArialMT', 'Arial', sans-serif;font-size:16px;">n</text>                </g>                <g transform="matrix(0.974682,0.223596,-0.223596,0.974682,70.29,16.0822)">                    <text x="0px" y="0px" style="font-family:'ArialMT', 'Arial', sans-serif;font-size:16px;">i</text>                </g>                <g transform="matrix(0.943029,0.33271,-0.33271,0.943029,73.295,16.6172)">                    <text x="0px" y="0px" style="font-family:'ArialMT', 'Arial', sans-serif;font-size:16px;">s</text>                </g>                <g transform="matrix(0.890697,0.454598,-0.454598,0.890697,80.3532,19.1597)">                    <text x="0px" y="0px" style="font-family:'ArialMT', 'Arial', sans-serif;font-size:16px;">-</text>                </g>                <g transform="matrix(0.79863,0.601823,-0.601823,0.79863,84.9326,21.1622)">                    <text x="0px" y="0px" style="font-family:'ArialMT', 'Arial', sans-serif;font-size:15.999px;">C</text>                </g>                <g transform="matrix(0.699011,0.715111,-0.715111,0.699011,93.5563,27.9839)">                    <text x="0px" y="0px" style="font-family:'ArialMT', 'Arial', sans-serif;font-size:16px;">l</text>                </g>                <g transform="matrix(0.60353,0.79734,-0.79734,0.60353,95.9188,30.131)">                    <text x="0px" y="0px" style="font-family:'ArialMT', 'Arial', sans-serif;font-size:15.999px;">u</text>                </g>                <g transform="matrix(0.45081,0.89262,-0.89262,0.45081,101.014,36.7857)">                    <text x="0px" y="0px" style="font-family:'ArialMT', 'Arial', sans-serif;font-size:16px;">b</text>                </g>                <g transform="matrix(0.182809,0.983148,-0.983148,0.182809,106.702,50.4233)">                    <text x="0px" y="0px" style="font-family:'ArialMT', 'Arial', sans-serif;font-size:15.999px;">•</text>                </g>            </g>            <g transform="matrix(1,0,0,-1,0,123.307)">                <g id="Layer-14" serif:id="Layer-1">                    <path d="M38.579,53.371L38.579,75.96L33.674,75.96C31.515,75.96 30.615,77.533 30.615,79.062C30.615,80.635 31.74,82.164 33.674,82.164L50.228,82.164C52.163,82.164 53.288,80.635 53.288,79.062C53.288,77.533 52.388,75.96 50.228,75.96L45.323,75.96L45.323,53.371C45.323,51.121 43.885,49.861 41.951,49.861C40.018,49.861 38.579,51.121 38.579,53.371ZM49.02,50.401C49.02,59.763 55.314,66.958 64.493,66.958C67.778,66.958 74.168,65.879 74.168,61.922C74.168,60.303 73.043,58.908 71.378,58.908C69.533,58.908 68.273,60.483 64.493,60.483C58.914,60.483 56.034,55.757 56.034,50.266C56.034,44.91 58.959,40.319 64.493,40.319C68.273,40.319 69.803,42.209 71.648,42.209C73.673,42.209 74.618,40.184 74.618,39.15C74.618,34.834 67.823,33.845 64.493,33.845C55.359,33.845 49.02,41.084 49.02,50.401ZM78.674,53.371L78.674,75.96L73.77,75.96C71.61,75.96 70.71,77.533 70.71,79.062C70.71,80.635 71.835,82.164 73.77,82.164L90.323,82.164C92.258,82.164 93.383,80.635 93.383,79.062C93.383,77.533 92.483,75.96 90.323,75.96L85.418,75.96L85.418,53.371C85.418,51.121 83.98,49.861 82.046,49.861C80.113,49.861 78.674,51.121 78.674,53.371"></path>                </g>            </g>        </g>    </g></svg>