<svg xmlns="http://www.w3.org/2000/svg" xmlns:xlink="http://www.w3.org/1999/xlink" width="500" zoomAndPan="magnify" viewBox="0 0 375 374.999991" height="500" preserveAspectRatio="xMidYMid meet" version="1.0"><defs><g/><clipPath id="407266ab6d"><path d="M 123 148 L 248 148 L 248 281 L 123 281 Z M 123 148 " clip-rule="nonzero"/></clipPath><clipPath id="d901a0c764"><path d="M 139.816406 123.496094 L 275.453125 162.015625 L 234.886719 304.867188 L 99.25 266.347656 Z M 139.816406 123.496094 " clip-rule="nonzero"/></clipPath><clipPath id="c86245b3bb"><path d="M 139.816406 123.496094 L 275.453125 162.015625 L 234.886719 304.867188 L 99.25 266.347656 Z M 139.816406 123.496094 " clip-rule="nonzero"/></clipPath><clipPath id="46768580c9"><path d="M 181 154 L 247 154 L 247 226 L 181 226 Z M 181 154 " clip-rule="nonzero"/></clipPath><clipPath id="ff2b25d6f8"><path d="M 139.816406 123.496094 L 275.453125 162.015625 L 234.886719 304.867188 L 99.25 266.347656 Z M 139.816406 123.496094 " clip-rule="nonzero"/></clipPath><clipPath id="db7dec031f"><path d="M 139.816406 123.496094 L 275.453125 162.015625 L 234.886719 304.867188 L 99.25 266.347656 Z M 139.816406 123.496094 " clip-rule="nonzero"/></clipPath><clipPath id="9ce4431b5c"><path d="M 137 149 L 202 149 L 202 269 L 137 269 Z M 137 149 " clip-rule="nonzero"/></clipPath><clipPath id="41c14dc724"><path d="M 139.816406 123.496094 L 275.453125 162.015625 L 234.886719 304.867188 L 99.25 266.347656 Z M 139.816406 123.496094 " clip-rule="nonzero"/></clipPath><clipPath id="4d3cb92a68"><path d="M 139.816406 123.496094 L 275.453125 162.015625 L 234.886719 304.867188 L 99.25 266.347656 Z M 139.816406 123.496094 " clip-rule="nonzero"/></clipPath><clipPath id="4b2da4a46e"><path d="M 122 147 L 249 147 L 249 281 L 122 281 Z M 122 147 " clip-rule="nonzero"/></clipPath><clipPath id="496b9a29b4"><path d="M 139.816406 123.496094 L 275.453125 162.015625 L 234.886719 304.867188 L 99.25 266.347656 Z M 139.816406 123.496094 " clip-rule="nonzero"/></clipPath><clipPath id="9c6aaf5ae9"><path d="M 139.816406 123.496094 L 275.453125 162.015625 L 234.886719 304.867188 L 99.25 266.347656 Z M 139.816406 123.496094 " clip-rule="nonzero"/></clipPath></defs><path fill="#7bba35" d="M 187.5 0 C 265.820312 0 316.210938 33.398438 333.984375 44.035156 C 332.03125 52.914062 328.125 97.65625 337.5 157.421875 C 346.875 217.1875 344.53125 253.125 328.515625 276.171875 C 312.5 299.21875 262.109375 325.78125 241.796875 336.71875 C 221.484375 347.65625 187.5 367.96875 187.5 375 C 187.5 367.96875 153.515625 347.65625 133.203125 336.71875 C 112.890625 325.78125 62.5 299.21875 46.484375 276.171875 C 30.46875 253.125 28.125 217.1875 37.5 157.421875 C 46.875 97.65625 42.96875 52.917969 41.015625 44.035156 C 58.789062 33.398438 109.179688 0 187.5 0 Z M 187.5 0 " fill-opacity="1" fill-rule="nonzero"/><path fill="#000000" d="M 187.5 9.375 C 218.113281 9.375 247.894531 14.707031 276.023438 25.222656 C 297.664062 33.3125 313.628906 42.671875 323.765625 48.808594 C 322.871094 56.339844 322.152344 67.800781 322.121094 81.625 C 322.078125 98.800781 323.105469 126.144531 328.242188 158.875 C 332.894531 188.53125 334.511719 211.757812 333.183594 229.882812 C 331.910156 247.296875 327.863281 260.6875 320.820312 270.824219 C 314.878906 279.375 302.320312 289.847656 283.496094 301.953125 C 267.3125 312.363281 249.964844 321.6875 239.601562 327.257812 L 237.355469 328.464844 C 224.773438 335.238281 211.5 343.109375 201.851562 349.511719 C 195.621094 353.648438 190.960938 357.09375 187.503906 360.0625 C 184.046875 357.09375 179.390625 353.648438 173.15625 349.511719 C 163.503906 343.105469 150.230469 335.238281 137.652344 328.464844 L 135.40625 327.257812 C 125.042969 321.6875 107.695312 312.363281 91.511719 301.953125 C 72.6875 289.847656 60.128906 279.375 54.1875 270.824219 C 47.144531 260.6875 43.101562 247.296875 41.824219 229.882812 C 40.496094 211.757812 42.113281 188.53125 46.765625 158.875 C 51.898438 126.144531 52.925781 98.800781 52.886719 81.625 C 52.851562 67.800781 52.132812 56.339844 51.242188 48.808594 C 61.378906 42.671875 77.34375 33.3125 98.984375 25.222656 C 127.113281 14.707031 156.898438 9.375 187.507812 9.375 M 187.507812 0 C 109.1875 0 58.796875 33.398438 41.023438 44.035156 C 42.976562 52.914062 46.882812 97.65625 37.507812 157.421875 C 28.132812 217.1875 30.476562 253.125 46.492188 276.171875 C 62.507812 299.21875 112.898438 325.78125 133.210938 336.71875 C 153.523438 347.65625 187.507812 367.96875 187.507812 375 C 187.507812 367.96875 221.492188 347.65625 241.804688 336.71875 C 262.117188 325.78125 312.507812 299.21875 328.523438 276.171875 C 344.539062 253.125 346.882812 217.1875 337.507812 157.421875 C 328.132812 97.65625 332.039062 52.917969 333.992188 44.035156 C 316.21875 33.398438 265.828125 0 187.507812 0 Z M 187.507812 0 " fill-opacity="1" fill-rule="nonzero"/><path fill="#fbfbf9" d="M 313.117188 265.472656 C 309.519531 270.652344 300.574219 279.820312 278.421875 294.066406 C 262.546875 304.277344 246.066406 313.136719 235.160156 319 L 232.90625 320.210938 C 220.089844 327.113281 206.539062 335.148438 196.664062 341.703125 C 193.324219 343.917969 190.265625 346.027344 187.5 348.070312 C 184.734375 346.027344 181.675781 343.917969 178.335938 341.703125 C 169.515625 335.847656 157.765625 328.8125 146.222656 322.457031 C 144.839844 321.699219 143.460938 320.949219 142.09375 320.210938 L 139.839844 319 C 134.1875 315.960938 127.039062 312.117188 119.25 307.699219 C 112.058594 303.613281 104.320312 299.039062 96.714844 294.152344 C 96.667969 294.125 96.625 294.097656 96.578125 294.066406 C 85.679688 287.058594 77.976562 281.277344 72.539062 276.601562 C 66.917969 271.765625 63.710938 268.105469 61.882812 265.472656 C 59.964844 262.714844 58.296875 259.625 56.878906 256.179688 C 53.101562 247.007812 51.082031 235.296875 50.789062 220.535156 C 50.472656 204.363281 52.230469 184.519531 56.023438 160.328125 C 63.667969 111.59375 62.835938 73.675781 61.117188 53.824219 C 83.371094 40.730469 126.121094 18.75 187.5 18.75 C 209.253906 18.75 228.671875 21.511719 245.664062 25.660156 C 257.371094 28.519531 267.921875 32.035156 277.300781 35.757812 C 286.722656 39.5 294.960938 43.453125 301.976562 47.160156 C 306.441406 49.523438 310.410156 51.78125 313.882812 53.824219 C 313.335938 60.160156 312.875 68.335938 312.753906 78.117188 C 312.628906 88.199219 312.863281 99.988281 313.726562 113.222656 C 314.476562 124.792969 315.710938 137.46875 317.605469 151.074219 C 318.03125 154.113281 318.484375 157.199219 318.976562 160.328125 C 327.535156 214.894531 325.730469 247.324219 313.117188 265.472656 Z M 313.117188 265.472656 " fill-opacity="1" fill-rule="nonzero"/><path fill="#d9d9d9" d="M 187.5 28.125 C 206.566406 28.125 225.386719 30.359375 243.441406 34.765625 C 253.710938 37.273438 263.941406 40.539062 273.84375 44.46875 C 281.917969 47.675781 289.6875 51.265625 297.59375 55.445312 C 299.742188 56.582031 301.894531 57.757812 304.09375 59 C 303.703125 64.984375 303.464844 71.351562 303.382812 78 C 303.242188 89.503906 303.574219 101.558594 304.375 113.828125 C 305.195312 126.464844 306.523438 139.433594 308.324219 152.375 C 308.792969 155.730469 309.25 158.808594 309.71875 161.78125 C 317.765625 213.078125 316.398438 244.328125 305.421875 260.125 C 302.875 263.792969 295.320312 272.054688 273.355469 286.183594 C 257.796875 296.191406 241.511719 304.945312 230.726562 310.742188 L 228.464844 311.957031 C 215.402344 318.992188 201.578125 327.191406 191.488281 333.890625 C 190.078125 334.824219 188.753906 335.71875 187.503906 336.574219 C 186.253906 335.71875 184.933594 334.824219 183.523438 333.890625 C 174.539062 327.925781 162.59375 320.765625 150.730469 314.234375 C 149.351562 313.480469 147.945312 312.714844 146.550781 311.960938 L 146.542969 311.960938 L 146.535156 311.953125 L 144.285156 310.742188 C 138.625 307.699219 131.585938 303.914062 123.886719 299.546875 C 115.597656 294.835938 108.367188 290.492188 101.789062 286.265625 L 101.617188 286.15625 L 101.585938 286.136719 C 92.171875 280.078125 84.457031 274.480469 78.660156 269.496094 C 73.394531 264.96875 70.824219 261.902344 69.585938 260.121094 C 68.054688 257.921875 66.699219 255.394531 65.554688 252.609375 C 62.199219 244.464844 60.4375 233.910156 60.167969 220.351562 C 59.863281 204.859375 61.539062 185.699219 65.289062 161.78125 C 68.753906 139.679688 70.832031 117.726562 71.457031 96.523438 C 71.925781 80.6875 71.5 68.015625 70.914062 59 C 80.886719 53.371094 94.90625 46.242188 112.636719 40.261719 C 136.507812 32.210938 161.695312 28.125 187.503906 28.125 M 187.503906 18.75 C 126.125 18.75 83.375 40.730469 61.121094 53.824219 C 62.839844 73.675781 63.671875 111.59375 56.027344 160.328125 C 52.234375 184.519531 50.476562 204.363281 50.792969 220.535156 C 51.085938 235.296875 53.105469 247.007812 56.882812 256.179688 C 58.300781 259.625 59.96875 262.714844 61.886719 265.472656 C 63.714844 268.105469 66.921875 271.765625 72.542969 276.601562 C 77.980469 281.277344 85.683594 287.058594 96.582031 294.066406 C 96.628906 294.097656 96.671875 294.125 96.71875 294.152344 C 104.324219 299.039062 112.0625 303.613281 119.253906 307.699219 C 127.042969 312.117188 134.191406 315.960938 139.84375 319 L 142.097656 320.210938 C 143.464844 320.949219 144.84375 321.699219 146.226562 322.457031 C 157.769531 328.8125 169.519531 335.847656 178.339844 341.703125 C 181.679688 343.917969 184.738281 346.027344 187.503906 348.070312 C 190.269531 346.027344 193.328125 343.917969 196.667969 341.703125 C 206.542969 335.148438 220.09375 327.113281 232.910156 320.210938 L 235.164062 319 C 246.070312 313.136719 262.550781 304.277344 278.425781 294.066406 C 300.578125 279.820312 309.523438 270.652344 313.121094 265.472656 C 325.734375 247.324219 327.539062 214.894531 318.980469 160.328125 C 318.488281 157.199219 318.035156 154.113281 317.609375 151.074219 C 315.714844 137.46875 314.480469 124.792969 313.730469 113.222656 C 312.867188 99.988281 312.632812 88.199219 312.757812 78.117188 C 312.878906 68.335938 313.339844 60.160156 313.886719 53.824219 C 310.414062 51.78125 306.445312 49.523438 301.980469 47.160156 C 294.964844 43.453125 286.726562 39.5 277.304688 35.757812 C 267.925781 32.035156 257.375 28.519531 245.667969 25.660156 C 228.675781 21.511719 209.257812 18.75 187.503906 18.75 Z M 187.503906 18.75 " fill-opacity="1" fill-rule="nonzero"/><g fill="#333333" fill-opacity="1"><g transform="translate(92.721485, 98.728196)"><g><path d="M -5.371094 -37.660156 C -5.78125 -37.414062 -5.917969 -36.871094 -5.667969 -36.457031 L 8.054688 -13.632812 C 8.664062 -12.621094 8.433594 -11.816406 7.457031 -11.230469 L 5.503906 -10.054688 C 4.527344 -9.46875 3.710938 -9.640625 3.101562 -10.65625 L -10.625 -33.480469 C -10.871094 -33.890625 -11.414062 -34.027344 -11.824219 -33.777344 L -15.429688 -31.609375 C -15.84375 -31.363281 -15.976562 -30.820312 -15.730469 -30.410156 L -1.375 -6.535156 C 0.75 -3.003906 3.753906 -2.257812 7.28125 -4.378906 L 11.488281 -6.90625 C 15.015625 -9.027344 15.765625 -12.035156 13.640625 -15.5625 L -0.714844 -39.4375 C -0.960938 -39.851562 -1.503906 -39.984375 -1.914062 -39.738281 Z M -5.371094 -37.660156 "/></g></g></g><g fill="#333333" fill-opacity="1"><g transform="translate(109.753329, 88.306686)"><g><path d="M 0.0625 -38.371094 C -0.378906 -38.175781 -0.472656 -37.847656 -0.292969 -37.449219 L 7.210938 -20.554688 L 6.972656 -20.449219 L -6.671875 -34.757812 C -6.953125 -35.066406 -7.261719 -35.117188 -7.621094 -34.957031 L -11.585938 -33.199219 C -11.984375 -33.019531 -12.121094 -32.671875 -11.941406 -32.273438 L 1.71875 -1.53125 C 1.894531 -1.128906 2.242188 -0.996094 2.640625 -1.171875 L 6.804688 -3.023438 C 7.246094 -3.21875 7.339844 -3.546875 7.160156 -3.949219 L -0.378906 -20.921875 L -0.179688 -21.011719 L 13.539062 -6.636719 C 13.820312 -6.332031 14.128906 -6.277344 14.492188 -6.4375 L 18.453125 -8.199219 C 18.855469 -8.375 18.988281 -8.722656 18.808594 -9.125 L 5.152344 -39.867188 C 4.972656 -40.265625 4.625 -40.398438 4.226562 -40.222656 Z M 0.0625 -38.371094 "/></g></g></g><g fill="#333333" fill-opacity="1"><g transform="translate(129.130938, 79.667638)"><g><path d="M -8.417969 -34.074219 C -8.835938 -33.945312 -9.007812 -33.617188 -8.878906 -33.199219 L -7.585938 -29.015625 C -7.457031 -28.59375 -7.128906 -28.421875 -6.710938 -28.550781 L -1.855469 -30.050781 L 6.574219 -2.765625 C 6.714844 -2.304688 7.03125 -2.171875 7.449219 -2.300781 L 11.800781 -3.644531 C 12.261719 -3.789062 12.40625 -4.0625 12.265625 -4.523438 L 3.835938 -31.808594 L 8.691406 -33.308594 C 9.152344 -33.449219 9.28125 -33.765625 9.152344 -34.183594 L 7.859375 -38.371094 C 7.730469 -38.789062 7.445312 -38.976562 6.984375 -38.832031 Z M -8.417969 -34.074219 "/></g></g></g><g fill="#333333" fill-opacity="1"><g transform="translate(146.60868, 74.109323)"><g><path d="M 13.035156 -37.367188 C 12.953125 -37.796875 12.734375 -38.023438 12.214844 -37.925781 L -3.628906 -34.96875 C -4.015625 -34.898438 -4.226562 -34.589844 -4.148438 -34.160156 L 2.023438 -1.089844 C 2.105469 -0.660156 2.410156 -0.449219 2.800781 -0.523438 L 18.644531 -3.480469 C 19.160156 -3.574219 19.285156 -3.867188 19.203125 -4.296875 L 18.402344 -8.601562 C 18.3125 -9.078125 18.101562 -9.257812 17.582031 -9.164062 L 6.820312 -7.15625 L 5.195312 -15.851562 L 13.421875 -17.386719 C 13.851562 -17.46875 14.0625 -17.773438 13.972656 -18.246094 L 13.175781 -22.511719 C 13.089844 -22.984375 12.78125 -23.195312 12.351562 -23.113281 L 4.128906 -21.578125 L 2.519531 -30.191406 L 13.285156 -32.199219 C 13.800781 -32.296875 13.917969 -32.628906 13.835938 -33.058594 Z M 13.035156 -37.367188 "/></g></g></g><g fill="#333333" fill-opacity="1"><g transform="translate(166.198925, 70.318255)"><g><path d="M 18.335938 -29.953125 C 18.074219 -34.0625 15.75 -36.109375 11.640625 -35.851562 L 0.667969 -35.15625 C 0.234375 -35.128906 -0.0117188 -34.847656 0.015625 -34.410156 L 2.140625 -0.839844 C 2.167969 -0.402344 2.449219 -0.15625 2.886719 -0.183594 L 7.429688 -0.472656 C 7.867188 -0.5 8.113281 -0.777344 8.085938 -1.214844 L 7.390625 -12.230469 L 10.40625 -12.421875 L 14.039062 -1.503906 C 14.148438 -1.117188 14.382812 -0.910156 14.820312 -0.9375 L 19.367188 -1.226562 C 19.847656 -1.257812 20.09375 -1.535156 19.929688 -2.050781 L 16.1875 -13.316406 C 18.226562 -14.367188 19.195312 -16.359375 19.011719 -19.285156 Z M 7.023438 -18 L 6.28125 -29.714844 L 10.609375 -29.992188 C 11.746094 -30.0625 12.394531 -29.488281 12.46875 -28.351562 L 12.988281 -20.132812 C 13.0625 -18.996094 12.488281 -18.347656 11.351562 -18.273438 Z M 7.023438 -18 "/></g></g></g><g fill="#333333" fill-opacity="1"><g transform="translate(186.624785, 68.921243)"><g><path d="M 21.394531 -27.535156 C 21.632812 -31.648438 19.53125 -33.964844 15.417969 -34.203125 L 4.925781 -34.816406 C 4.488281 -34.839844 4.210938 -34.636719 4.183594 -34.15625 L 2.226562 -0.570312 C 2.203125 -0.136719 2.449219 0.144531 2.886719 0.167969 L 13.382812 0.78125 C 17.492188 1.019531 19.847656 -1.035156 20.089844 -5.148438 L 20.558594 -13.195312 C 20.652344 -14.8125 19.542969 -16.105469 17.984375 -16.457031 L 17.988281 -16.546875 C 19.578125 -16.714844 20.832031 -17.871094 20.925781 -19.492188 Z M 15.191406 -21.273438 C 15.128906 -20.179688 14.480469 -19.601562 13.34375 -19.667969 L 9.363281 -19.902344 L 9.878906 -28.734375 L 13.859375 -28.503906 C 15.039062 -28.433594 15.574219 -27.789062 15.507812 -26.652344 Z M 14.34375 -6.710938 C 14.273438 -5.53125 13.628906 -4.996094 12.492188 -5.0625 L 8.511719 -5.296875 L 9.027344 -14.128906 L 13.007812 -13.898438 C 14.1875 -13.828125 14.722656 -13.183594 14.65625 -12.046875 Z M 14.34375 -6.710938 "/></g></g></g><g fill="#333333" fill-opacity="1"><g transform="translate(206.635304, 69.95772)"><g><path d="M 25.003906 -24.664062 C 25.738281 -28.714844 23.976562 -31.261719 19.925781 -31.996094 L 9.109375 -33.960938 C 8.675781 -34.039062 8.371094 -33.828125 8.292969 -33.398438 L 2.28125 -0.296875 C 2.203125 0.132812 2.414062 0.4375 2.84375 0.515625 L 7.328125 1.332031 C 7.757812 1.410156 8.0625 1.199219 8.140625 0.765625 L 10.113281 -10.09375 L 13.089844 -9.554688 L 13.988281 1.917969 C 14.003906 2.320312 14.179688 2.574219 14.609375 2.652344 L 19.09375 3.46875 C 19.566406 3.554688 19.871094 3.34375 19.835938 2.800781 L 18.914062 -9.03125 C 21.148438 -9.558594 22.570312 -11.257812 23.09375 -14.148438 Z M 11.148438 -15.78125 L 13.246094 -27.332031 L 17.511719 -26.558594 C 18.632812 -26.355469 19.125 -25.640625 18.921875 -24.519531 L 17.453125 -16.417969 C 17.246094 -15.296875 16.535156 -14.804688 15.414062 -15.007812 Z M 11.148438 -15.78125 "/></g></g></g><g fill="#333333" fill-opacity="1"><g transform="translate(226.798915, 73.516666)"><g><path d="M 24.53125 -29.074219 C 24.070312 -29.21875 23.578125 -28.960938 23.433594 -28.5 L 15.535156 -3.066406 C 15.1875 -1.933594 14.429688 -1.574219 13.34375 -1.910156 L 11.167969 -2.585938 C 10.082031 -2.925781 9.664062 -3.648438 10.015625 -4.777344 L 17.910156 -30.214844 C 18.054688 -30.671875 17.796875 -31.167969 17.335938 -31.308594 L 13.320312 -32.558594 C 12.859375 -32.699219 12.367188 -32.441406 12.222656 -31.980469 L 3.960938 -5.375 C 2.742188 -1.441406 4.183594 1.300781 8.117188 2.519531 L 12.800781 3.972656 C 16.734375 5.195312 19.472656 3.753906 20.695312 -0.179688 L 28.957031 -26.785156 C 29.097656 -27.246094 28.839844 -27.738281 28.378906 -27.882812 Z M 24.53125 -29.074219 "/></g></g></g><g fill="#333333" fill-opacity="1"><g transform="translate(245.945229, 79.34216)"><g><path d="M 29.777344 -18.144531 C 31.460938 -21.902344 30.316406 -24.816406 26.597656 -26.480469 L 22.121094 -28.488281 C 18.363281 -30.171875 15.429688 -29.085938 13.746094 -25.328125 L 4.578125 -4.859375 C 2.894531 -1.101562 4.039062 1.808594 7.792969 3.492188 L 12.273438 5.5 C 15.988281 7.164062 18.921875 6.078125 20.605469 2.320312 L 22.542969 -1.996094 C 22.71875 -2.394531 22.589844 -2.742188 22.1875 -2.921875 L 18.191406 -4.714844 C 17.75 -4.910156 17.445312 -4.761719 17.265625 -4.359375 L 15.832031 -1.164062 C 15.347656 -0.0820312 14.554688 0.1875 13.515625 -0.28125 L 11.4375 -1.210938 C 10.398438 -1.675781 10.070312 -2.445312 10.554688 -3.527344 L 18.722656 -21.753906 C 19.1875 -22.792969 19.957031 -23.121094 21.039062 -22.636719 L 23.117188 -21.707031 C 24.15625 -21.238281 24.464844 -20.429688 24 -19.390625 L 22.566406 -16.191406 C 22.386719 -15.792969 22.480469 -15.464844 22.917969 -15.265625 L 26.917969 -13.476562 C 27.316406 -13.296875 27.664062 -13.429688 27.84375 -13.828125 Z M 29.777344 -18.144531 "/></g></g></g><g fill="#333333" fill-opacity="1"><g transform="translate(264.294751, 87.438066)"><g><path d="M 22.304688 -10.40625 L 17.5 -13.292969 L 24.679688 -25.230469 C 24.90625 -25.609375 24.816406 -25.96875 24.4375 -26.195312 L 20.574219 -28.519531 C 20.121094 -28.789062 19.800781 -28.675781 19.574219 -28.300781 L 2.238281 0.527344 C 2.011719 0.902344 2.066406 1.242188 2.515625 1.511719 L 6.382812 3.835938 C 6.757812 4.0625 7.117188 3.972656 7.34375 3.597656 L 14.519531 -8.339844 L 19.328125 -5.449219 L 12.148438 6.488281 C 11.921875 6.863281 12.011719 7.222656 12.386719 7.449219 L 16.253906 9.773438 C 16.703125 10.042969 17.027344 9.933594 17.253906 9.558594 L 34.589844 -19.273438 C 34.816406 -19.648438 34.761719 -19.988281 34.3125 -20.257812 L 30.445312 -22.582031 C 30.070312 -22.808594 29.710938 -22.71875 29.484375 -22.34375 Z M 22.304688 -10.40625 "/></g></g></g><g fill="#333333" fill-opacity="1"><g transform="translate(161.079487, 312.499685)"><g><path d="M 1.078125 -12.121094 C 0.875 -12.105469 0.78125 -11.996094 0.78125 -11.792969 L 0.78125 -10.292969 C 0.78125 -10.089844 0.90625 -9.980469 1.109375 -10.011719 L 2.082031 -10.136719 L 2.082031 -0.25 C 2.082031 -0.09375 2.160156 0 2.332031 0 L 3.957031 0 C 4.113281 0 4.207031 -0.09375 4.207031 -0.25 L 4.207031 -12.261719 C 4.207031 -12.417969 4.113281 -12.511719 3.957031 -12.511719 Z M 1.078125 -12.121094 "/></g></g></g><g fill="#333333" fill-opacity="1"><g transform="translate(166.224712, 312.499685)"><g><path d="M 4.332031 -4.832031 L 2.441406 -0.359375 C 2.347656 -0.140625 2.441406 0 2.675781 0 L 4.300781 0 C 4.488281 0 4.597656 -0.078125 4.660156 -0.234375 L 6.882812 -5.519531 C 6.992188 -5.804688 7.039062 -6.007812 7.039062 -6.304688 L 7.039062 -10.324219 C 7.039062 -11.746094 6.273438 -12.511719 4.847656 -12.511719 L 2.972656 -12.511719 C 1.546875 -12.511719 0.78125 -11.746094 0.78125 -10.324219 L 0.78125 -7.023438 C 0.78125 -5.597656 1.546875 -4.832031 2.972656 -4.832031 Z M 4.347656 -10.449219 C 4.753906 -10.449219 4.972656 -10.230469 4.972656 -9.824219 L 4.972656 -7.523438 C 4.972656 -7.117188 4.753906 -6.898438 4.347656 -6.898438 L 3.472656 -6.898438 C 3.066406 -6.898438 2.847656 -7.117188 2.847656 -7.523438 L 2.847656 -9.824219 C 2.847656 -10.230469 3.066406 -10.449219 3.472656 -10.449219 Z M 4.347656 -10.449219 "/></g></g></g><g fill="#333333" fill-opacity="1"><g transform="translate(174.044201, 312.499685)"><g><path d="M 3.488281 -7.679688 L 5.378906 -12.152344 C 5.472656 -12.371094 5.378906 -12.511719 5.144531 -12.511719 L 3.519531 -12.511719 C 3.332031 -12.511719 3.222656 -12.433594 3.160156 -12.277344 L 0.9375 -6.992188 C 0.828125 -6.710938 0.78125 -6.507812 0.78125 -6.210938 L 0.78125 -2.191406 C 0.78125 -0.765625 1.546875 0 2.972656 0 L 4.847656 0 C 6.273438 0 7.039062 -0.765625 7.039062 -2.191406 L 7.039062 -5.488281 C 7.039062 -6.914062 6.273438 -7.679688 4.847656 -7.679688 Z M 3.472656 -2.066406 C 3.066406 -2.066406 2.847656 -2.285156 2.847656 -2.691406 L 2.847656 -4.988281 C 2.847656 -5.394531 3.066406 -5.613281 3.472656 -5.613281 L 4.347656 -5.613281 C 4.753906 -5.613281 4.972656 -5.394531 4.972656 -4.988281 L 4.972656 -2.691406 C 4.972656 -2.285156 4.753906 -2.066406 4.347656 -2.066406 Z M 3.472656 -2.066406 "/></g></g></g><g fill="#333333" fill-opacity="1"><g transform="translate(181.863691, 312.499685)"><g><path d="M 4.332031 -4.832031 L 2.441406 -0.359375 C 2.347656 -0.140625 2.441406 0 2.675781 0 L 4.300781 0 C 4.488281 0 4.597656 -0.078125 4.660156 -0.234375 L 6.882812 -5.519531 C 6.992188 -5.804688 7.039062 -6.007812 7.039062 -6.304688 L 7.039062 -10.324219 C 7.039062 -11.746094 6.273438 -12.511719 4.847656 -12.511719 L 2.972656 -12.511719 C 1.546875 -12.511719 0.78125 -11.746094 0.78125 -10.324219 L 0.78125 -7.023438 C 0.78125 -5.597656 1.546875 -4.832031 2.972656 -4.832031 Z M 4.347656 -10.449219 C 4.753906 -10.449219 4.972656 -10.230469 4.972656 -9.824219 L 4.972656 -7.523438 C 4.972656 -7.117188 4.753906 -6.898438 4.347656 -6.898438 L 3.472656 -6.898438 C 3.066406 -6.898438 2.847656 -7.117188 2.847656 -7.523438 L 2.847656 -9.824219 C 2.847656 -10.230469 3.066406 -10.449219 3.472656 -10.449219 Z M 4.347656 -10.449219 "/></g></g></g><g fill="#333333" fill-opacity="1"><g transform="translate(189.68318, 312.499685)"><g><path d="M 5.882812 -12.511719 C 5.695312 -12.511719 5.582031 -12.433594 5.519531 -12.261719 L 0.5 0.875 C 0.421875 1.09375 0.515625 1.234375 0.75 1.234375 L 2.222656 1.234375 C 2.410156 1.234375 2.519531 1.15625 2.582031 0.984375 L 7.585938 -12.152344 C 7.664062 -12.371094 7.570312 -12.511719 7.335938 -12.511719 Z M 5.882812 -12.511719 "/></g></g></g><g fill="#333333" fill-opacity="1"><g transform="translate(197.909298, 312.499685)"><g><path d="M 1.03125 -12.511719 C 0.875 -12.496094 0.78125 -12.417969 0.78125 -12.246094 L 0.78125 -10.683594 C 0.78125 -10.527344 0.875 -10.433594 1.03125 -10.433594 L 4.738281 -10.433594 L 0.875 -0.359375 C 0.796875 -0.140625 0.890625 0 1.125 0 L 2.753906 -0.015625 C 2.941406 -0.015625 3.050781 -0.09375 3.113281 -0.265625 L 7.679688 -12.136719 C 7.757812 -12.355469 7.695312 -12.511719 7.445312 -12.511719 Z M 1.03125 -12.511719 "/></g></g></g><g fill="#333333" fill-opacity="1"><g transform="translate(206.088488, 312.499685)"><g><path d="M 6.617188 -5.992188 C 6.914062 -6.148438 7.039062 -6.273438 7.039062 -6.570312 L 7.039062 -10.261719 C 7.039062 -11.730469 6.242188 -12.511719 4.785156 -12.511719 L 3.035156 -12.511719 C 1.5625 -12.511719 0.78125 -11.730469 0.78125 -10.261719 L 0.78125 -8.601562 C 0.78125 -8.445312 0.859375 -8.351562 1.03125 -8.351562 L 2.660156 -8.351562 C 2.816406 -8.351562 2.910156 -8.445312 2.910156 -8.601562 L 2.910156 -9.824219 C 2.910156 -10.230469 3.113281 -10.449219 3.535156 -10.449219 L 4.285156 -10.449219 C 4.675781 -10.449219 4.910156 -10.230469 4.910156 -9.824219 L 4.910156 -7.507812 L 1.1875 -5.503906 C 0.890625 -5.347656 0.78125 -5.222656 0.78125 -4.925781 L 0.78125 -0.3125 C 0.78125 -0.109375 0.890625 0 1.09375 0 L 6.726562 0 C 6.929688 0 7.039062 -0.109375 7.039062 -0.3125 L 7.039062 -2.707031 C 7.039062 -2.910156 6.929688 -3.019531 6.726562 -3.019531 L 5.222656 -3.019531 C 5.019531 -3.019531 4.910156 -2.910156 4.910156 -2.707031 L 4.910156 -2.066406 L 3.222656 -2.066406 C 3.019531 -2.066406 2.910156 -2.175781 2.910156 -2.378906 L 2.910156 -3.738281 C 2.910156 -3.910156 2.972656 -4.019531 3.128906 -4.113281 Z M 6.617188 -5.992188 "/></g></g></g><g clip-path="url(#407266ab6d)"><g clip-path="url(#d901a0c764)"><g clip-path="url(#c86245b3bb)"><path fill="#efede8" d="M 190.15625 261.929688 C 188.25 268.648438 181.253906 272.546875 174.535156 270.640625 C 167.816406 268.734375 163.917969 261.738281 165.824219 255.019531 C 167.734375 248.300781 174.726562 244.402344 181.445312 246.308594 C 188.164062 248.21875 192.066406 255.210938 190.15625 261.929688 Z M 241.027344 270.960938 C 236.574219 259.917969 233.257812 252.910156 231.214844 246.035156 L 230.675781 244.210938 C 230.675781 244.210938 229.535156 236.878906 231.738281 232.691406 C 233.238281 229.84375 236.589844 226.753906 239.867188 223.164062 L 241.339844 221.480469 C 244.566406 217.25 255.21875 206.675781 239.640625 175.097656 C 226.296875 148.046875 203.796875 150.660156 197.617188 151.964844 L 197.621094 151.964844 C 195.867188 152.3125 191.886719 153.265625 187.425781 155.558594 C 184.152344 153.128906 181.132812 151.71875 179.386719 151.015625 C 174.472656 148.984375 150.140625 140.398438 134.058594 167.160156 C 121.742188 187.65625 121.496094 201.914062 125.242188 211.210938 C 125.394531 211.589844 125.53125 211.972656 125.640625 212.367188 C 125.980469 213.609375 126.53125 214.789062 127.308594 215.816406 C 132.121094 222.160156 140.671875 228.296875 141.890625 232.570312 C 143.21875 237.21875 142.367188 242.753906 142.367188 242.753906 C 141.089844 248.644531 135.8125 261.988281 133.820312 267.527344 C 132.222656 271.960938 131.3125 273.46875 133.839844 274.714844 C 136.011719 275.78125 141.207031 277.582031 145.0625 278.257812 C 148.917969 278.933594 148.871094 276.375 149.351562 274.070312 C 151.789062 262.414062 152.921875 254.746094 155.046875 247.894531 L 155.609375 246.082031 C 155.609375 246.082031 158.734375 239.351562 162.894531 237.09375 C 165.722656 235.558594 170.226562 234.851562 174.945312 233.6875 L 177.105469 233.109375 C 178.628906 232.585938 181.039062 231.953125 183.785156 230.371094 C 184.53125 231 185.289062 231.578125 186.050781 232.097656 C 186.390625 232.328125 186.714844 232.570312 187.023438 232.835938 C 188 233.675781 189.113281 234.355469 190.328125 234.777344 C 197.855469 237.375 208.375 237.726562 211.761719 240.601562 C 215.449219 243.730469 217.816406 248.804688 217.816406 248.804688 C 220.027344 254.410156 223.054688 268.4375 224.476562 274.148438 C 225.613281 278.726562 225.695312 280.480469 228.488281 280.113281 C 230.886719 279.796875 236.203125 278.40625 239.785156 276.824219 C 243.367188 275.246094 241.90625 273.144531 241.027344 270.960938 Z M 241.027344 270.960938 " fill-opacity="1" fill-rule="nonzero"/></g></g></g><g clip-path="url(#46768580c9)"><g clip-path="url(#ff2b25d6f8)"><g clip-path="url(#db7dec031f)"><path fill="#333333" d="M 239.859375 222.457031 C 239.734375 222.59375 239.605469 222.726562 239.46875 222.851562 L 238.054688 224.125 C 236.078125 225.910156 233.125 225.964844 231.023438 224.332031 C 219.046875 215.007812 204.34375 219.546875 192.789062 224.335938 C 190.351562 225.347656 187.515625 224.484375 186.121094 222.242188 C 182.121094 215.792969 181.082031 206.820312 182.003906 187.226562 C 183.449219 156.378906 204.617188 154.324219 209.007812 154.183594 C 208.21875 154.222656 207.617188 154.304688 207.644531 154.304688 C 214.441406 153.914062 232.1875 154.222656 241.679688 183.949219 C 251.613281 216.890625 243.046875 218.984375 239.859375 222.457031 Z M 239.859375 222.457031 " fill-opacity="1" fill-rule="nonzero"/></g></g></g><g clip-path="url(#9ce4431b5c)"><g clip-path="url(#41c14dc724)"><g clip-path="url(#4d3cb92a68)"><path fill="#7bba35" d="M 183.402344 267.660156 C 177.402344 270.199219 171.082031 268.8125 169.289062 264.566406 C 167.496094 260.324219 170.90625 254.824219 176.902344 252.289062 C 182.902344 249.753906 189.222656 251.140625 191.015625 255.382812 C 192.808594 259.628906 189.402344 265.125 183.402344 267.660156 Z M 177.90625 229.421875 C 170.136719 230.207031 162.300781 228.921875 155.191406 225.691406 C 148.664062 222.730469 141.855469 218.96875 140.113281 214.882812 C 127.914062 191.773438 157.085938 137.683594 184.4375 152.457031 C 213.597656 161.015625 201.214844 225.152344 180.09375 229.199219 Z M 183.628906 152.226562 C 183.640625 152.226562 183.644531 152.230469 183.65625 152.230469 C 183.636719 152.226562 183.628906 152.222656 183.628906 152.226562 Z M 183.628906 152.226562 " fill-opacity="1" fill-rule="nonzero"/></g></g></g><g clip-path="url(#4b2da4a46e)"><g clip-path="url(#496b9a29b4)"><g clip-path="url(#9c6aaf5ae9)"><path fill="#000000" d="M 242.613281 273.96875 C 242.523438 272.976562 242.121094 272.183594 241.796875 271.421875 C 241.46875 270.679688 241.164062 269.890625 240.84375 269.121094 L 238.894531 264.507812 L 234.964844 255.304688 C 234.304688 253.734375 233.65625 252.160156 233.046875 250.574219 C 232.546875 248.757812 232.003906 246.953125 231.445312 245.15625 C 231.265625 244.574219 231.074219 243.992188 230.890625 243.414062 C 230.789062 241.089844 230.835938 238.757812 231.164062 236.503906 C 231.371094 235.261719 231.703125 234.042969 232.230469 232.957031 C 232.804688 231.863281 233.574219 230.839844 234.394531 229.859375 C 236.0625 227.902344 237.867188 226.019531 239.609375 224.070312 C 240.246094 223.371094 240.859375 222.648438 241.457031 221.914062 C 241.546875 221.890625 241.628906 221.851562 241.695312 221.777344 L 241.707031 221.761719 C 243.074219 220.148438 244.476562 218.417969 245.542969 216.488281 C 246.617188 214.5625 247.398438 212.476562 247.902344 210.328125 C 248.425781 208.1875 248.625 205.980469 248.632812 203.789062 C 248.632812 201.597656 248.457031 199.410156 248.109375 197.257812 C 247.765625 195.105469 247.277344 192.980469 246.65625 190.902344 C 246.015625 188.828125 245.296875 186.785156 244.476562 184.785156 C 242.839844 180.78125 241.070312 176.863281 239.085938 173.023438 C 237.035156 169.21875 234.613281 165.582031 231.660156 162.386719 C 228.722656 159.191406 225.25 156.433594 221.351562 154.453125 C 217.464844 152.453125 213.183594 151.222656 208.839844 150.8125 C 206.667969 150.589844 204.480469 150.597656 202.308594 150.773438 C 200.710938 150.90625 199.128906 151.140625 197.5625 151.515625 C 197.550781 151.515625 197.542969 151.511719 197.53125 151.511719 C 194.492188 152.058594 191.527344 152.984375 188.699219 154.242188 C 188.921875 154.367188 189.132812 154.503906 189.347656 154.636719 C 189.5625 154.769531 189.785156 154.898438 189.996094 155.042969 C 192.355469 153.96875 194.824219 153.125 197.351562 152.507812 C 205.214844 150.957031 213.628906 151.957031 220.792969 155.550781 C 224.554688 157.457031 227.984375 160.023438 230.894531 163.105469 C 233.820312 166.175781 236.265625 169.703125 238.277344 173.453125 C 242.285156 180.992188 245.164062 189.179688 246.59375 197.5 C 247.285156 201.660156 247.398438 205.933594 246.550781 210.027344 C 246.441406 210.574219 246.304688 211.109375 246.152344 211.640625 C 246.019531 212.113281 245.875 212.578125 245.71875 213.042969 C 245.363281 214.027344 244.945312 214.984375 244.472656 215.914062 C 243.539062 217.800781 242.273438 219.460938 240.972656 221.203125 C 240.925781 221.265625 240.90625 221.339844 240.894531 221.417969 C 240.796875 221.527344 240.695312 221.632812 240.59375 221.742188 C 240.5 221.84375 240.402344 221.945312 240.308594 222.050781 C 240.285156 222.054688 240.261719 222.0625 240.242188 222.070312 C 237.3125 222.898438 234.398438 223.757812 231.484375 224.632812 C 230.785156 224.839844 230.085938 225.046875 229.386719 225.257812 L 218.101562 228.699219 L 195.582031 235.722656 C 195.566406 235.730469 195.554688 235.75 195.539062 235.757812 C 195.488281 235.714844 195.433594 235.679688 195.363281 235.664062 C 191.511719 234.742188 187.917969 232.929688 184.855469 230.460938 C 186.253906 229.605469 187.5625 228.601562 188.757812 227.480469 C 189.695312 226.625 190.546875 225.683594 191.339844 224.695312 C 191.925781 223.96875 192.480469 223.222656 193 222.449219 C 194.21875 220.628906 195.289062 218.710938 196.195312 216.730469 C 197.105469 214.75 197.878906 212.710938 198.519531 210.636719 C 199.136719 208.558594 199.675781 206.457031 200.109375 204.339844 C 200.96875 200.101562 201.671875 195.863281 202.15625 191.566406 C 202.566406 187.265625 202.578125 182.894531 201.894531 178.597656 C 201.582031 176.601562 201.117188 174.621094 200.5 172.6875 C 199.789062 170.46875 198.875 168.308594 197.730469 166.273438 C 196.492188 164.039062 194.992188 161.953125 193.285156 160.050781 C 192.074219 158.699219 190.761719 157.4375 189.355469 156.292969 C 189.109375 156.089844 188.855469 155.898438 188.605469 155.703125 C 188.410156 155.554688 188.222656 155.402344 188.027344 155.253906 C 187.832031 155.109375 187.628906 154.972656 187.429688 154.832031 C 186.308594 154.035156 185.144531 153.300781 183.949219 152.632812 C 182.542969 151.851562 181.097656 151.171875 179.589844 150.613281 C 179.578125 150.605469 179.570312 150.597656 179.5625 150.59375 C 179.445312 150.542969 179.324219 150.496094 179.207031 150.449219 C 175.0625 148.6875 170.613281 147.664062 166.09375 147.433594 C 161.453125 147.175781 156.726562 147.898438 152.371094 149.601562 C 148.007812 151.300781 144.089844 154.050781 140.90625 157.410156 C 137.667969 160.726562 135.035156 164.554688 132.734375 168.519531 C 130.433594 172.480469 128.335938 176.574219 126.617188 180.839844 C 124.894531 185.097656 123.550781 189.542969 122.898438 194.128906 C 122.246094 198.699219 122.328125 203.445312 123.539062 207.957031 C 124.082031 210.070312 124.90625 212.109375 125.957031 214.023438 C 125.914062 214.089844 125.894531 214.171875 125.941406 214.246094 C 126.453125 215.089844 127.027344 215.882812 127.625 216.664062 C 128.335938 217.652344 129.113281 218.585938 129.957031 219.460938 C 130.433594 219.992188 130.917969 220.511719 131.402344 221.03125 C 133.40625 223.121094 135.5 225.117188 137.460938 227.210938 C 138.433594 228.257812 139.390625 229.324219 140.199219 230.464844 C 140.59375 231.035156 140.953125 231.625 141.203125 232.238281 C 141.269531 232.386719 141.308594 232.542969 141.363281 232.695312 L 141.484375 233.203125 C 141.570312 233.539062 141.628906 233.886719 141.691406 234.230469 C 141.933594 235.609375 142.070312 237.019531 142.113281 238.4375 C 142.148438 239.144531 142.167969 239.859375 142.152344 240.574219 C 142.160156 240.925781 142.144531 241.277344 142.140625 241.628906 C 141.894531 242.453125 141.652344 243.273438 141.417969 244.101562 C 140.878906 246.007812 140.351562 247.917969 139.871094 249.839844 C 139.59375 250.621094 139.308594 251.398438 139.023438 252.175781 C 137.890625 255.308594 136.699219 258.421875 135.5 261.535156 C 134.898438 263.089844 134.304688 264.648438 133.722656 266.21875 C 133.15625 267.804688 132.542969 269.308594 132.015625 270.960938 C 131.890625 271.375 131.78125 271.808594 131.730469 272.285156 C 131.683594 272.753906 131.714844 273.316406 131.976562 273.816406 C 132.539062 274.816406 133.496094 275.164062 134.230469 275.515625 C 135.789062 276.203125 137.371094 276.769531 138.972656 277.289062 C 140.578125 277.796875 142.203125 278.246094 143.863281 278.59375 C 144.683594 278.753906 145.53125 278.960938 146.484375 278.910156 C 146.953125 278.886719 147.453125 278.785156 147.914062 278.539062 C 148.378906 278.289062 148.765625 277.886719 149 277.453125 C 149.476562 276.578125 149.582031 275.699219 149.738281 274.882812 C 149.878906 274.082031 150.058594 273.257812 150.222656 272.441406 L 151.167969 267.519531 L 153.011719 257.6875 C 153.332031 256.015625 153.671875 254.347656 154.046875 252.6875 C 154.640625 250.898438 155.191406 249.097656 155.726562 247.292969 C 155.898438 246.707031 156.0625 246.121094 156.230469 245.535156 C 157.4375 243.546875 158.773438 241.632812 160.300781 239.945312 C 161.160156 239.023438 162.113281 238.195312 163.15625 237.585938 C 164.242188 237 165.449219 236.574219 166.679688 236.214844 C 169.148438 235.511719 171.699219 234.949219 174.230469 234.300781 C 175.144531 234.070312 176.058594 233.808594 176.964844 233.535156 C 177.050781 233.5625 177.144531 233.574219 177.238281 233.550781 L 177.253906 233.542969 C 179.292969 232.960938 181.417969 232.304688 183.375 231.292969 C 183.496094 231.230469 183.613281 231.15625 183.730469 231.09375 C 185.121094 232.222656 186.621094 233.210938 188.207031 234.035156 C 188.210938 234.117188 188.242188 234.195312 188.320312 234.230469 C 189.328125 234.699219 190.363281 235.09375 191.417969 235.4375 C 192.445312 235.804688 193.492188 236.105469 194.558594 236.335938 C 195.246094 236.511719 195.9375 236.675781 196.628906 236.835938 C 199.457031 237.460938 202.308594 237.957031 205.101562 238.605469 C 206.492188 238.9375 207.878906 239.292969 209.183594 239.792969 C 209.832031 240.046875 210.460938 240.339844 211.003906 240.707031 C 211.144531 240.796875 211.261719 240.902344 211.394531 241 L 211.777344 241.355469 C 212.035156 241.585938 212.273438 241.84375 212.519531 242.09375 C 213.488281 243.105469 214.382812 244.203125 215.207031 245.359375 C 215.632812 245.925781 216.042969 246.507812 216.429688 247.109375 C 216.628906 247.398438 216.8125 247.699219 217.003906 247.996094 C 217.257812 248.816406 217.511719 249.636719 217.777344 250.453125 C 218.386719 252.335938 219.011719 254.21875 219.683594 256.085938 C 219.882812 256.886719 220.078125 257.691406 220.273438 258.496094 C 221.070312 261.730469 221.8125 264.980469 222.542969 268.234375 C 222.90625 269.863281 223.28125 271.488281 223.667969 273.117188 C 224.082031 274.75 224.40625 276.339844 224.882812 278.007812 C 225.011719 278.421875 225.160156 278.84375 225.382812 279.269531 C 225.605469 279.683594 225.945312 280.132812 226.4375 280.402344 C 227.460938 280.921875 228.449219 280.679688 229.253906 280.566406 C 230.9375 280.269531 232.566406 279.863281 234.1875 279.402344 C 235.804688 278.933594 237.402344 278.40625 238.976562 277.769531 C 239.746094 277.449219 240.570312 277.148438 241.332031 276.578125 C 241.707031 276.296875 242.066406 275.9375 242.316406 275.472656 C 242.5625 275.007812 242.65625 274.457031 242.613281 273.96875 Z M 229.683594 226.195312 C 230.671875 225.867188 231.652344 225.53125 232.640625 225.199219 C 234.929688 224.429688 237.210938 223.644531 239.488281 222.832031 C 239.535156 222.8125 239.585938 222.796875 239.636719 222.78125 C 239.414062 223.015625 239.203125 223.253906 238.980469 223.488281 C 237.191406 225.367188 235.296875 227.160156 233.578125 229.167969 C 232.71875 230.171875 231.898438 231.230469 231.242188 232.4375 C 230.570312 233.667969 230.257812 235.015625 230.070312 236.339844 C 229.878906 237.667969 229.84375 239.003906 229.921875 240.324219 C 229.921875 240.382812 229.933594 240.441406 229.933594 240.496094 C 229.777344 240.03125 229.625 239.5625 229.46875 239.097656 C 228.777344 237.085938 228.082031 235.078125 227.339844 233.089844 C 226.664062 231.261719 225.972656 229.445312 225.234375 227.640625 C 226.71875 227.164062 228.203125 226.6875 229.683594 226.195312 Z M 218.445312 229.808594 C 220.550781 229.136719 222.65625 228.46875 224.761719 227.796875 C 224.820312 228.019531 224.886719 228.242188 224.949219 228.464844 C 225.003906 229.332031 224.996094 230.207031 224.933594 231.054688 C 224.855469 231.976562 224.699219 232.878906 224.390625 233.714844 C 224.085938 234.546875 223.597656 235.28125 222.976562 235.898438 C 222.367188 236.542969 221.535156 236.933594 220.6875 237.351562 L 220.65625 237.367188 C 220.558594 237.414062 220.503906 237.523438 220.523438 237.632812 C 220.546875 237.765625 220.675781 237.855469 220.808594 237.828125 C 221.785156 237.652344 222.832031 237.375 223.644531 236.667969 C 224.480469 236.011719 225.113281 235.101562 225.480469 234.117188 C 225.742188 233.359375 225.882812 232.582031 225.921875 231.808594 C 226.082031 232.339844 226.242188 232.875 226.40625 233.40625 C 227.027344 235.4375 227.699219 237.453125 228.371094 239.46875 C 229.058594 241.480469 229.746094 243.488281 230.488281 245.480469 C 231.070312 247.070312 231.671875 248.65625 232.304688 250.230469 C 233.988281 255.203125 236.054688 260.03125 238.007812 264.875 L 239.875 269.515625 C 240.191406 270.289062 240.484375 271.058594 240.824219 271.84375 C 241.148438 272.609375 241.488281 273.359375 241.53125 274.042969 C 241.589844 274.71875 241.269531 275.261719 240.667969 275.695312 C 240.089844 276.132812 239.324219 276.417969 238.558594 276.726562 C 237.03125 277.332031 235.457031 277.835938 233.867188 278.289062 C 232.28125 278.75 230.671875 279.160156 229.066406 279.453125 C 228.257812 279.597656 227.472656 279.699219 226.976562 279.421875 C 226.488281 279.171875 226.171875 278.4375 225.9375 277.679688 C 225.082031 274.527344 224.339844 271.222656 223.539062 268 C 222.242188 262.824219 221.027344 257.613281 219.371094 252.515625 C 219.164062 251.730469 218.960938 250.945312 218.746094 250.164062 C 218.171875 248.007812 217.542969 245.867188 216.914062 243.726562 C 216.269531 241.589844 215.625 239.453125 214.925781 237.332031 C 214.78125 236.882812 214.628906 236.4375 214.480469 235.988281 C 214.558594 236.058594 214.625 236.144531 214.707031 236.210938 C 215.257812 236.640625 215.859375 237.015625 216.511719 237.238281 C 216.828125 237.375 217.171875 237.429688 217.5 237.519531 C 217.835938 237.574219 218.175781 237.605469 218.511719 237.617188 C 218.601562 237.621094 218.691406 237.574219 218.738281 237.488281 C 218.804688 237.367188 218.761719 237.214844 218.640625 237.152344 L 218.613281 237.136719 C 218.328125 236.980469 218.035156 236.867188 217.753906 236.730469 C 217.480469 236.582031 217.191406 236.46875 216.933594 236.308594 C 216.398438 236.023438 215.90625 235.683594 215.441406 235.316406 C 214.980469 234.945312 214.574219 234.515625 214.195312 234.054688 C 213.917969 233.703125 213.667969 233.316406 213.4375 232.917969 C 213.273438 232.4375 213.105469 231.957031 212.933594 231.480469 C 214.769531 230.925781 216.609375 230.363281 218.445312 229.808594 Z M 207.132812 233.183594 C 208.914062 232.679688 210.6875 232.152344 212.460938 231.617188 C 212.585938 232.167969 212.726562 232.710938 212.859375 233.253906 C 212.886719 233.394531 212.917969 233.53125 212.960938 233.664062 C 213.289062 234.984375 213.628906 236.300781 213.980469 237.613281 C 214.554688 239.769531 215.179688 241.914062 215.800781 244.054688 C 215.859375 244.25 215.917969 244.441406 215.976562 244.636719 C 215.207031 243.449219 214.324219 242.332031 213.332031 241.300781 C 213.0625 241.039062 212.800781 240.777344 212.511719 240.539062 C 212.242188 240.296875 211.945312 240.039062 211.609375 239.816406 C 210.953125 239.382812 210.261719 239.070312 209.5625 238.800781 C 208.164062 238.277344 206.742188 237.933594 205.316406 237.636719 C 202.46875 237.042969 199.613281 236.617188 196.792969 236.058594 C 196.699219 236.042969 196.609375 236.023438 196.519531 236.003906 C 200.085938 235.164062 203.613281 234.1875 207.132812 233.183594 Z M 182.804688 230.222656 C 182.785156 230.234375 182.761719 230.242188 182.738281 230.253906 C 180.933594 231.28125 178.980469 231.957031 176.957031 232.671875 C 176.882812 232.699219 176.824219 232.75 176.773438 232.804688 C 176.492188 232.875 176.214844 232.941406 175.933594 233.007812 C 172.324219 231.835938 168.699219 230.714844 165.070312 229.605469 L 153.777344 226.195312 L 131.152344 219.523438 C 131.132812 219.519531 131.113281 219.527344 131.09375 219.527344 C 131.078125 219.464844 131.050781 219.402344 131.003906 219.351562 C 127.945312 216.050781 125.804688 211.984375 124.71875 207.648438 C 123.621094 203.3125 123.515625 198.75 124.117188 194.292969 C 124.742188 189.835938 125.941406 185.445312 127.589844 181.222656 C 128.386719 179.101562 129.339844 177.039062 130.304688 174.984375 C 131.316406 172.949219 132.378906 170.941406 133.527344 168.976562 C 135.78125 165.042969 138.386719 161.285156 141.71875 158.234375 C 142.515625 157.441406 143.402344 156.75 144.261719 156.027344 C 145.160156 155.363281 146.058594 154.691406 147.007812 154.101562 C 148.886719 152.894531 150.863281 151.859375 152.929688 151.027344 C 157.066406 149.355469 161.570312 148.695312 166.042969 148.816406 C 168.824219 148.898438 171.601562 149.285156 174.320312 149.941406 C 175.859375 150.3125 177.375 150.777344 178.859375 151.320312 C 181.464844 152.402344 183.949219 153.789062 186.25 155.433594 C 186.449219 155.574219 186.644531 155.71875 186.839844 155.867188 C 187.039062 156.015625 187.242188 156.160156 187.4375 156.316406 C 189.203125 157.6875 190.84375 159.21875 192.332031 160.882812 C 193.976562 162.722656 195.441406 164.726562 196.660156 166.875 C 198.726562 170.550781 200.152344 174.589844 200.859375 178.769531 C 201.554688 182.753906 201.648438 186.84375 201.296875 190.890625 C 201.277344 191.085938 201.265625 191.28125 201.246094 191.476562 C 201.230469 191.660156 201.203125 191.839844 201.183594 192.019531 C 201.179688 192.042969 201.175781 192.0625 201.175781 192.085938 C 200.277344 200.371094 198.152344 208.5625 194.800781 216.089844 C 193.414062 219.15625 191.679688 222.066406 189.523438 224.609375 C 188.976562 225.257812 188.40625 225.886719 187.804688 226.480469 C 187.0625 227.21875 186.257812 227.886719 185.433594 228.523438 C 184.917969 228.90625 184.382812 229.257812 183.839844 229.597656 C 183.65625 229.710938 183.46875 229.824219 183.285156 229.933594 C 183.125 230.027344 182.96875 230.128906 182.804688 230.222656 Z M 174.03125 233.464844 C 171.496094 234.03125 168.925781 234.46875 166.382812 235.183594 C 165.113281 235.542969 163.839844 235.964844 162.621094 236.605469 C 161.378906 237.253906 160.371094 238.203125 159.480469 239.199219 C 158.582031 240.199219 157.8125 241.289062 157.140625 242.429688 C 157.113281 242.476562 157.085938 242.53125 157.058594 242.582031 C 157.1875 242.105469 157.320312 241.632812 157.449219 241.15625 C 157.988281 239.101562 158.527344 237.046875 159.015625 234.976562 C 159.46875 233.085938 159.90625 231.191406 160.292969 229.28125 C 161.792969 229.707031 163.292969 230.136719 164.796875 230.550781 C 168.175781 231.480469 171.566406 232.386719 174.96875 233.238281 C 174.652344 233.3125 174.34375 233.394531 174.03125 233.464844 Z M 148.058594 276.914062 C 147.730469 277.507812 147.164062 277.78125 146.421875 277.808594 C 145.699219 277.851562 144.90625 277.664062 144.097656 277.496094 C 142.492188 277.148438 140.898438 276.691406 139.328125 276.1875 C 137.753906 275.6875 136.183594 275.132812 134.6875 274.484375 C 133.9375 274.15625 133.226562 273.804688 132.96875 273.300781 C 132.699219 272.820312 132.847656 272.03125 133.074219 271.273438 C 134.113281 268.175781 135.332031 265.019531 136.457031 261.894531 C 138.257812 256.867188 140.140625 251.859375 141.597656 246.703125 C 141.863281 245.933594 142.125 245.167969 142.386719 244.402344 C 143.105469 242.289062 143.773438 240.160156 144.4375 238.027344 C 145.089844 235.894531 145.738281 233.761719 146.339844 231.609375 C 146.464844 231.164062 146.585938 230.714844 146.707031 230.269531 C 146.730469 230.367188 146.75 230.460938 146.777344 230.554688 C 147 231.21875 147.289062 231.863281 147.710938 232.414062 C 147.894531 232.703125 148.152344 232.941406 148.375 233.195312 C 148.625 233.425781 148.886719 233.640625 149.160156 233.839844 C 149.234375 233.890625 149.335938 233.902344 149.421875 233.859375 C 149.542969 233.792969 149.589844 233.644531 149.527344 233.523438 L 149.511719 233.496094 C 149.363281 233.207031 149.179688 232.949219 149.023438 232.679688 C 148.878906 232.402344 148.699219 232.152344 148.574219 231.875 C 148.289062 231.335938 148.070312 230.78125 147.886719 230.21875 C 147.710938 229.65625 147.609375 229.074219 147.554688 228.476562 C 147.515625 228.03125 147.523438 227.570312 147.554688 227.113281 C 147.683594 226.621094 147.8125 226.128906 147.933594 225.632812 C 149.769531 226.195312 151.609375 226.75 153.445312 227.308594 C 155.570312 227.921875 157.691406 228.535156 159.8125 229.144531 C 159.738281 229.363281 159.671875 229.585938 159.597656 229.804688 C 159.164062 230.554688 158.667969 231.28125 158.148438 231.949219 C 157.570312 232.671875 156.9375 233.335938 156.21875 233.859375 C 155.5 234.382812 154.6875 234.722656 153.828125 234.890625 C 152.964844 235.089844 152.054688 234.949219 151.117188 234.828125 L 151.082031 234.820312 C 150.976562 234.808594 150.867188 234.863281 150.824219 234.96875 C 150.769531 235.09375 150.828125 235.238281 150.953125 235.289062 C 151.863281 235.683594 152.886719 236.039062 153.957031 235.902344 C 155.011719 235.820312 156.046875 235.414062 156.898438 234.796875 C 157.535156 234.316406 158.085938 233.75 158.546875 233.125 C 158.386719 233.65625 158.222656 234.1875 158.0625 234.722656 C 157.449219 236.757812 156.890625 238.804688 156.328125 240.855469 C 155.785156 242.910156 155.238281 244.960938 154.746094 247.03125 C 154.347656 248.679688 153.96875 250.332031 153.617188 251.992188 C 152.257812 257.058594 151.292969 262.21875 150.222656 267.335938 L 149.199219 272.230469 C 149.03125 273.050781 148.847656 273.851562 148.691406 274.695312 C 148.539062 275.507812 148.402344 276.320312 148.058594 276.914062 Z M 142.550781 232.933594 C 142.460938 232.582031 142.355469 232.203125 142.199219 231.832031 C 141.898438 231.105469 141.492188 230.460938 141.0625 229.851562 C 140.191406 228.636719 139.199219 227.558594 138.179688 226.523438 C 136.140625 224.449219 134.007812 222.503906 131.96875 220.472656 C 131.902344 220.410156 131.835938 220.339844 131.769531 220.277344 C 135.203125 221.558594 138.679688 222.707031 142.164062 223.832031 C 143.925781 224.398438 145.691406 224.945312 147.460938 225.488281 C 147.261719 226.015625 147.074219 226.546875 146.882812 227.078125 C 146.832031 227.207031 146.78125 227.332031 146.742188 227.464844 C 146.28125 228.746094 145.832031 230.03125 145.398438 231.316406 C 144.671875 233.429688 144.003906 235.558594 143.332031 237.6875 C 143.273438 237.878906 143.214844 238.074219 143.152344 238.265625 C 143.175781 236.851562 143.058594 235.429688 142.808594 234.019531 C 142.730469 233.65625 142.65625 233.292969 142.550781 232.933594 Z M 191.152344 259.921875 C 191.121094 260.863281 190.964844 261.804688 190.632812 262.703125 C 190.117188 264.195312 189.253906 265.566406 188.148438 266.652344 C 187.226562 267.597656 186.144531 268.34375 185.042969 268.964844 C 184.847656 269.074219 184.652344 269.191406 184.457031 269.292969 L 184.445312 269.296875 C 184.441406 269.300781 184.4375 269.300781 184.433594 269.300781 C 184.429688 269.304688 184.425781 269.3125 184.417969 269.3125 C 184.097656 269.511719 183.765625 269.699219 183.429688 269.878906 C 182.230469 270.519531 180.953125 271.035156 179.597656 271.355469 C 177.875 271.777344 176 271.828125 174.222656 271.351562 C 172.429688 270.898438 170.875 269.765625 169.722656 268.417969 C 169.308594 267.941406 168.945312 267.4375 168.601562 266.929688 C 168.457031 266.71875 168.308594 266.507812 168.167969 266.292969 C 167.683594 265.578125 167.234375 264.832031 166.855469 264.050781 C 166.101562 262.488281 165.5 260.800781 165.390625 259.015625 C 165.359375 258.609375 165.355469 258.199219 165.371094 257.785156 C 165.371094 257.734375 165.371094 257.679688 165.375 257.625 C 165.382812 257.46875 165.410156 257.3125 165.425781 257.152344 C 165.488281 256.480469 165.601562 255.808594 165.792969 255.15625 C 165.929688 254.691406 166.089844 254.230469 166.289062 253.789062 C 167.007812 252.152344 168.082031 250.703125 169.34375 249.488281 C 170.253906 248.609375 171.242188 247.839844 172.316406 247.1875 C 172.734375 246.933594 173.164062 246.695312 173.613281 246.480469 C 173.730469 246.421875 173.863281 246.433594 173.972656 246.484375 C 174.054688 246.523438 174.128906 246.585938 174.167969 246.675781 C 174.261719 246.863281 174.195312 247.089844 174.023438 247.203125 L 174 247.21875 C 171.277344 249.023438 168.800781 251.394531 167.414062 254.296875 C 166.753906 255.753906 166.378906 257.34375 166.453125 258.957031 C 166.496094 260.566406 166.957031 262.171875 167.679688 263.648438 C 168.035156 264.390625 168.457031 265.105469 168.914062 265.792969 C 169.390625 266.480469 169.878906 267.140625 170.492188 267.664062 C 171.699219 268.746094 173.140625 269.4375 174.625 269.859375 C 176.125 270.277344 177.734375 270.261719 179.316406 269.992188 C 180.898438 269.714844 182.449219 269.15625 183.972656 268.507812 C 185.144531 267.632812 186.238281 266.765625 187.140625 265.71875 C 187.363281 265.460938 187.570312 265.191406 187.769531 264.917969 C 188.371094 264.082031 188.855469 263.175781 189.179688 262.207031 C 189.589844 260.917969 189.816406 259.5625 189.863281 258.152344 C 189.902344 256.746094 189.660156 255.304688 189.183594 253.964844 C 189.15625 253.890625 189.125 253.820312 189.101562 253.746094 C 189.257812 254.734375 189.285156 255.75 189.191406 256.753906 C 189.042969 257.960938 188.726562 259.148438 188.214844 260.246094 C 187.703125 261.34375 187.019531 262.359375 186.171875 263.207031 C 186.117188 263.265625 186.023438 263.265625 185.964844 263.207031 C 185.914062 263.15625 185.90625 263.074219 185.949219 263.015625 C 186.625 262.066406 187.191406 261.054688 187.609375 259.984375 C 188.027344 258.917969 188.324219 257.804688 188.425781 256.671875 C 188.5625 255.539062 188.507812 254.386719 188.328125 253.257812 C 188.273438 252.921875 188.203125 252.589844 188.121094 252.257812 C 188.03125 251.882812 187.917969 251.511719 187.796875 251.140625 C 186.796875 249.695312 185.445312 248.519531 183.871094 247.789062 C 181.367188 246.613281 178.4375 246.375 175.644531 246.664062 L 175.609375 246.667969 C 175.382812 246.691406 175.175781 246.523438 175.152344 246.292969 C 175.148438 246.242188 175.152344 246.195312 175.164062 246.148438 C 175.199219 246.003906 175.3125 245.890625 175.457031 245.847656 C 176.949219 245.441406 178.464844 245.332031 179.992188 245.460938 C 181.511719 245.585938 183.03125 245.980469 184.414062 246.691406 C 185.105469 247.035156 185.761719 247.464844 186.351562 247.96875 C 186.949219 248.464844 187.484375 249.027344 187.949219 249.640625 C 188.878906 250.863281 189.570312 252.242188 190.042969 253.671875 C 190.066406 253.746094 190.082031 253.816406 190.105469 253.890625 C 190.523438 255.257812 190.847656 256.644531 191.0625 258.085938 C 191.140625 258.6875 191.171875 259.304688 191.152344 259.921875 Z M 144.949219 160.050781 C 144.894531 159.992188 144.894531 159.902344 144.941406 159.839844 C 145.539062 159.03125 146.222656 158.292969 146.945312 157.59375 C 147.667969 156.894531 148.457031 156.261719 149.253906 155.652344 C 150.078125 155.070312 150.917969 154.515625 151.796875 154.03125 C 152.679688 153.546875 153.582031 153.109375 154.523438 152.761719 C 154.601562 152.734375 154.6875 152.773438 154.714844 152.847656 C 154.738281 152.914062 154.710938 152.988281 154.652344 153.027344 C 153.804688 153.546875 152.960938 154.054688 152.136719 154.59375 C 151.3125 155.132812 150.492188 155.675781 149.714844 156.273438 C 148.910156 156.839844 148.152344 157.464844 147.398438 158.09375 C 146.640625 158.722656 145.914062 159.386719 145.183594 160.058594 C 145.117188 160.121094 145.011719 160.117188 144.949219 160.050781 Z M 156.273438 153.34375 C 156.296875 153.40625 156.273438 153.472656 156.226562 153.511719 C 155.726562 153.90625 155.207031 154.261719 154.691406 154.625 L 153.140625 155.683594 L 151.566406 156.710938 C 151.035156 157.046875 150.503906 157.386719 149.949219 157.699219 C 149.871094 157.742188 149.769531 157.714844 149.726562 157.632812 C 149.6875 157.570312 149.699219 157.488281 149.75 157.4375 C 150.191406 156.976562 150.675781 156.5625 151.171875 156.164062 C 151.664062 155.757812 152.183594 155.394531 152.710938 155.039062 C 153.246094 154.695312 153.785156 154.359375 154.347656 154.0625 C 154.910156 153.765625 155.480469 153.484375 156.082031 153.257812 C 156.15625 153.226562 156.242188 153.265625 156.273438 153.34375 Z M 185.726562 226.03125 C 184.964844 226.640625 184.171875 227.203125 183.34375 227.703125 C 183.035156 227.894531 182.722656 228.070312 182.40625 228.25 C 182.21875 228.355469 182.03125 228.460938 181.839844 228.566406 C 181.65625 228.667969 181.464844 228.761719 181.273438 228.859375 C 181.207031 228.894531 181.136719 228.933594 181.070312 228.96875 C 180.980469 229.011719 180.898438 229.058594 180.8125 229.101562 C 180.753906 229.128906 180.695312 229.109375 180.652344 229.066406 C 180.636719 229.054688 180.621094 229.050781 180.613281 229.035156 C 180.582031 228.96875 180.601562 228.894531 180.65625 228.851562 C 180.773438 228.761719 180.894531 228.675781 181.015625 228.585938 C 181.175781 228.464844 181.339844 228.34375 181.503906 228.226562 C 181.679688 228.097656 181.851562 227.96875 182.023438 227.84375 C 182.34375 227.613281 182.664062 227.386719 182.976562 227.15625 C 183.746094 226.589844 184.511719 226.035156 185.238281 225.433594 C 185.964844 224.847656 186.652344 224.222656 187.300781 223.558594 C 187.308594 223.550781 187.316406 223.542969 187.324219 223.535156 C 187.976562 222.859375 188.570312 222.128906 189.109375 221.347656 C 189.160156 221.273438 189.265625 221.253906 189.339844 221.308594 C 189.40625 221.351562 189.425781 221.4375 189.398438 221.507812 C 189.015625 222.390625 188.472656 223.199219 187.859375 223.941406 C 187.847656 223.957031 187.839844 223.972656 187.828125 223.984375 C 187.203125 224.746094 186.480469 225.414062 185.726562 226.03125 Z M 183.292969 225.582031 C 183.253906 225.515625 183.265625 225.4375 183.316406 225.382812 C 183.792969 224.878906 184.273438 224.386719 184.730469 223.878906 C 185.183594 223.367188 185.632812 222.855469 186.058594 222.324219 C 186.078125 222.296875 186.097656 222.265625 186.121094 222.242188 C 186.527344 221.738281 186.914062 221.21875 187.296875 220.695312 C 187.695312 220.136719 188.074219 219.5625 188.464844 218.988281 C 188.511719 218.921875 188.601562 218.902344 188.671875 218.949219 C 188.726562 218.988281 188.75 219.058594 188.726562 219.121094 C 188.503906 219.789062 188.199219 220.429688 187.851562 221.046875 C 187.507812 221.667969 187.097656 222.25 186.660156 222.804688 C 186.640625 222.828125 186.621094 222.851562 186.601562 222.875 C 186.171875 223.398438 185.714844 223.902344 185.207031 224.355469 C 184.683594 224.832031 184.125 225.273438 183.519531 225.640625 C 183.441406 225.6875 183.339844 225.660156 183.292969 225.582031 Z M 185.542969 221.042969 C 185.503906 220.996094 185.496094 220.929688 185.519531 220.875 C 185.648438 220.550781 185.800781 220.25 185.941406 219.945312 L 186.378906 219.046875 L 186.824219 218.148438 C 186.980469 217.851562 187.125 217.546875 187.304688 217.242188 C 187.347656 217.171875 187.441406 217.144531 187.515625 217.1875 C 187.5625 217.214844 187.589844 217.265625 187.589844 217.316406 C 187.59375 217.679688 187.53125 218.035156 187.441406 218.378906 C 187.359375 218.726562 187.222656 219.058594 187.074219 219.382812 C 186.914062 219.703125 186.738281 220.015625 186.519531 220.296875 C 186.300781 220.582031 186.066406 220.851562 185.78125 221.074219 C 185.707031 221.132812 185.597656 221.117188 185.542969 221.042969 Z M 222.242188 162.675781 C 222.402344 162.746094 222.539062 162.847656 222.675781 162.949219 C 222.804688 163.058594 222.933594 163.167969 223.042969 163.308594 C 223.152344 163.441406 223.253906 163.582031 223.324219 163.757812 C 223.359375 163.84375 223.316406 163.9375 223.230469 163.972656 C 223.203125 163.984375 223.175781 163.984375 223.148438 163.980469 L 223.132812 163.980469 C 222.9375 163.953125 222.777344 163.886719 222.625 163.816406 C 222.46875 163.746094 222.332031 163.652344 222.199219 163.558594 C 222.074219 163.453125 221.949219 163.351562 221.84375 163.21875 C 221.734375 163.085938 221.628906 162.953125 221.554688 162.773438 L 221.546875 162.757812 C 221.507812 162.664062 221.550781 162.554688 221.644531 162.515625 C 221.675781 162.503906 221.710938 162.5 221.742188 162.503906 C 221.929688 162.53125 222.085938 162.597656 222.242188 162.675781 Z M 223.726562 161.910156 C 224.035156 162.082031 224.316406 162.289062 224.59375 162.503906 C 224.867188 162.730469 225.128906 162.960938 225.363281 163.222656 C 225.601562 163.484375 225.828125 163.753906 226.007812 164.066406 C 226.050781 164.140625 226.027344 164.230469 225.953125 164.273438 C 225.90625 164.300781 225.851562 164.300781 225.804688 164.277344 C 225.492188 164.109375 225.210938 163.914062 224.929688 163.71875 C 224.648438 163.527344 224.382812 163.316406 224.113281 163.109375 C 223.851562 162.898438 223.585938 162.691406 223.332031 162.457031 C 223.078125 162.230469 222.824219 162.003906 222.585938 161.742188 C 222.523438 161.671875 222.53125 161.5625 222.601562 161.5 C 222.644531 161.460938 222.710938 161.449219 222.765625 161.464844 C 223.109375 161.574219 223.421875 161.734375 223.726562 161.910156 Z M 227.851562 163.175781 C 228.257812 163.582031 228.648438 164.007812 228.984375 164.472656 C 229.324219 164.9375 229.636719 165.421875 229.882812 165.941406 C 229.917969 166.015625 229.886719 166.105469 229.8125 166.140625 C 229.753906 166.167969 229.683594 166.152344 229.640625 166.109375 L 228.484375 164.898438 C 228.09375 164.503906 227.710938 164.109375 227.3125 163.730469 C 226.921875 163.34375 226.511719 162.976562 226.105469 162.601562 L 224.859375 161.484375 C 224.789062 161.425781 224.785156 161.320312 224.84375 161.25 C 224.894531 161.195312 224.972656 161.183594 225.035156 161.210938 C 225.566406 161.441406 226.054688 161.742188 226.527344 162.074219 C 227 162.398438 227.4375 162.777344 227.851562 163.175781 Z M 229.957031 164.246094 C 229.578125 163.824219 229.179688 163.421875 228.785156 163 C 228.722656 162.933594 228.726562 162.828125 228.792969 162.765625 C 228.847656 162.714844 228.925781 162.707031 228.988281 162.738281 C 229.507812 163.019531 229.984375 163.375 230.429688 163.761719 C 230.878906 164.144531 231.285156 164.582031 231.660156 165.039062 C 232.027344 165.503906 232.367188 165.992188 232.644531 166.511719 C 232.925781 167.03125 233.171875 167.570312 233.335938 168.140625 C 233.359375 168.21875 233.3125 168.300781 233.234375 168.324219 C 233.171875 168.34375 233.105469 168.316406 233.070312 168.265625 C 232.738281 167.792969 232.421875 167.320312 232.089844 166.863281 C 231.75 166.410156 231.417969 165.957031 231.058594 165.527344 C 230.707031 165.085938 230.332031 164.667969 229.957031 164.246094 Z M 132.054688 217.882812 C 132.085938 217.957031 132.050781 218.042969 131.976562 218.078125 C 131.910156 218.105469 131.835938 218.082031 131.796875 218.023438 C 131.253906 217.238281 130.789062 216.402344 130.363281 215.546875 C 129.9375 214.691406 129.578125 213.800781 129.257812 212.898438 C 128.949219 211.992188 128.675781 211.074219 128.480469 210.136719 C 128.28125 209.203125 128.128906 208.257812 128.066406 207.304688 C 128.0625 207.210938 128.128906 207.132812 128.222656 207.128906 C 128.300781 207.125 128.371094 207.175781 128.390625 207.25 C 128.636719 208.164062 128.871094 209.074219 129.136719 209.972656 C 129.40625 210.871094 129.679688 211.765625 129.988281 212.648438 C 130.289062 213.53125 130.625 214.40625 130.964844 215.277344 C 131.308594 216.152344 131.6875 217.011719 132.054688 217.882812 Z M 133.527344 216.820312 C 133.550781 216.894531 133.511719 216.980469 133.433594 217.007812 C 133.367188 217.027344 133.300781 217 133.261719 216.949219 C 132.882812 216.394531 132.566406 215.804688 132.28125 215.199219 C 131.992188 214.59375 131.757812 213.964844 131.550781 213.328125 C 131.355469 212.6875 131.179688 212.039062 131.066406 211.378906 C 130.949219 210.722656 130.863281 210.054688 130.855469 209.386719 C 130.855469 209.292969 130.925781 209.21875 131.019531 209.214844 C 131.09375 209.214844 131.160156 209.265625 131.179688 209.335938 L 131.722656 211.226562 C 131.914062 211.851562 132.089844 212.476562 132.289062 213.097656 C 132.476562 213.71875 132.691406 214.332031 132.890625 214.953125 Z M 134.835938 215.65625 C 134.847656 215.738281 134.789062 215.8125 134.707031 215.820312 C 134.644531 215.828125 134.589844 215.800781 134.558594 215.75 C 134.320312 215.347656 134.136719 214.925781 133.96875 214.496094 C 133.796875 214.070312 133.667969 213.625 133.550781 213.183594 C 133.445312 212.734375 133.34375 212.285156 133.292969 211.828125 C 133.234375 211.371094 133.195312 210.910156 133.214844 210.445312 C 133.21875 210.351562 133.296875 210.28125 133.390625 210.285156 C 133.460938 210.289062 133.515625 210.332031 133.539062 210.390625 C 133.703125 210.824219 133.828125 211.257812 133.953125 211.691406 C 134.085938 212.125 134.1875 212.558594 134.300781 212.996094 C 134.402344 213.433594 134.515625 213.867188 134.597656 214.308594 C 134.691406 214.753906 134.78125 215.195312 134.835938 215.65625 Z M 136.414062 213.472656 C 136.429688 213.660156 136.4375 213.84375 136.398438 214.042969 C 136.378906 214.128906 136.292969 214.183594 136.207031 214.167969 C 136.175781 214.160156 136.148438 214.144531 136.125 214.121094 L 136.113281 214.109375 C 135.964844 213.960938 135.867188 213.800781 135.78125 213.644531 C 135.683594 213.488281 135.625 213.320312 135.570312 213.15625 C 135.519531 212.984375 135.472656 212.816406 135.460938 212.632812 C 135.441406 212.453125 135.433594 212.269531 135.46875 212.066406 L 135.472656 212.046875 C 135.488281 211.949219 135.582031 211.882812 135.679688 211.898438 C 135.71875 211.90625 135.75 211.925781 135.773438 211.949219 C 135.917969 212.089844 136.011719 212.25 136.097656 212.414062 C 136.191406 212.578125 136.25 212.753906 136.308594 212.929688 C 136.355469 213.105469 136.402344 213.285156 136.414062 213.472656 Z M 186.121094 257.953125 C 186.308594 257.433594 186.457031 256.898438 186.597656 256.347656 C 186.621094 256.257812 186.710938 256.203125 186.800781 256.226562 C 186.871094 256.242188 186.917969 256.304688 186.925781 256.375 C 186.96875 256.964844 186.902344 257.5625 186.765625 258.144531 C 186.636719 258.726562 186.414062 259.289062 186.140625 259.820312 C 185.855469 260.347656 185.519531 260.847656 185.113281 261.285156 C 184.710938 261.722656 184.257812 262.117188 183.742188 262.417969 C 183.671875 262.457031 183.582031 262.433594 183.539062 262.363281 C 183.507812 262.304688 183.515625 262.234375 183.558594 262.191406 C 183.929688 261.757812 184.285156 261.328125 184.601562 260.875 C 184.914062 260.417969 185.207031 259.953125 185.457031 259.460938 C 185.714844 258.976562 185.925781 258.46875 186.121094 257.953125 Z M 181.371094 261.039062 C 181.359375 260.988281 181.371094 260.9375 181.402344 260.898438 C 181.601562 260.660156 181.808594 260.457031 182.007812 260.246094 L 182.601562 259.621094 L 183.199219 259 C 183.398438 258.792969 183.597656 258.578125 183.824219 258.371094 C 183.894531 258.308594 184.003906 258.3125 184.066406 258.378906 C 184.105469 258.421875 184.121094 258.484375 184.109375 258.535156 C 184.035156 258.851562 183.898438 259.136719 183.734375 259.410156 C 183.578125 259.683594 183.375 259.929688 183.15625 260.160156 C 182.933594 260.378906 182.691406 260.589844 182.421875 260.753906 C 182.152344 260.921875 181.871094 261.066406 181.558594 261.148438 C 181.476562 261.171875 181.390625 261.121094 181.371094 261.039062 Z M 181.371094 261.039062 " fill-opacity="1" fill-rule="nonzero"/></g></g></g><g fill="#333333" fill-opacity="1"><g transform="translate(123.724678, 127.645223)"><g><path d="M 19.878906 -6.570312 C 20.546875 -6.789062 20.65625 -7.289062 20.1875 -7.734375 L 7.105469 -22.046875 L 9.378906 -38.898438 C 9.480469 -39.578125 9.09375 -39.910156 8.46875 -39.703125 L 4.101562 -38.261719 C 3.644531 -38.109375 3.421875 -37.804688 3.351562 -37.320312 L 1.277344 -22.105469 L -2.984375 -34.996094 C -3.164062 -35.539062 -3.550781 -35.734375 -4.09375 -35.554688 L -8.085938 -34.234375 C -8.625 -34.054688 -8.820312 -33.667969 -8.640625 -33.128906 L 1.804688 -1.519531 C 1.984375 -0.976562 2.371094 -0.785156 2.910156 -0.960938 L 6.902344 -2.28125 C 7.445312 -2.460938 7.640625 -2.847656 7.460938 -3.386719 L 4.421875 -12.578125 L 4.984375 -16.042969 L 14.308594 -5.421875 C 14.613281 -5.058594 14.972656 -4.949219 15.472656 -5.113281 Z M 19.878906 -6.570312 "/></g></g></g><g fill="#333333" fill-opacity="1"><g transform="translate(143.95201, 120.731971)"><g><path d="M 22.90625 -4.273438 C 23.425781 -4.371094 23.546875 -4.660156 23.375 -5.121094 L 10.046875 -36.898438 C 9.878906 -37.3125 9.589844 -37.4375 9.203125 -37.363281 L 3.214844 -36.246094 C 2.828125 -36.175781 2.601562 -35.953125 2.597656 -35.507812 L 1.628906 -1.0625 C 1.589844 -0.5625 1.851562 -0.34375 2.324219 -0.433594 L 6.933594 -1.292969 C 7.320312 -1.367188 7.496094 -1.621094 7.507812 -2.023438 L 7.5 -8.527344 L 15.164062 -9.960938 L 17.542969 -3.898438 C 17.699219 -3.527344 17.957031 -3.351562 18.34375 -3.421875 Z M 13.152344 -14.753906 L 7.644531 -13.722656 L 7.59375 -29.265625 Z M 13.152344 -14.753906 "/></g></g></g><g fill="#333333" fill-opacity="1"><g transform="translate(167.144181, 116.375246)"><g><path d="M 18.648438 -29.761719 C 18.429688 -33.871094 16.128906 -35.945312 12.015625 -35.726562 L 1.035156 -35.144531 C 0.597656 -35.121094 0.351562 -34.847656 0.375 -34.410156 L 2.148438 -0.816406 C 2.171875 -0.378906 2.449219 -0.128906 2.886719 -0.152344 L 7.4375 -0.394531 C 7.875 -0.417969 8.121094 -0.691406 8.097656 -1.128906 L 7.515625 -12.152344 L 10.535156 -12.3125 L 14.050781 -1.355469 C 14.160156 -0.96875 14.390625 -0.761719 14.828125 -0.785156 L 19.378906 -1.023438 C 19.859375 -1.050781 20.105469 -1.324219 19.949219 -1.84375 L 16.324219 -13.144531 C 18.375 -14.175781 19.367188 -16.15625 19.210938 -19.085938 Z M 7.210938 -17.925781 L 6.589844 -29.648438 L 10.921875 -29.878906 C 12.058594 -29.9375 12.703125 -29.359375 12.765625 -28.222656 L 13.199219 -19.996094 C 13.257812 -18.859375 12.679688 -18.214844 11.542969 -18.15625 Z M 7.210938 -17.925781 "/></g></g></g><g fill="#333333" fill-opacity="1"><g transform="translate(187.519983, 115.139042)"><g><path d="M 20.882812 1.523438 C 21.582031 1.574219 21.875 1.15625 21.609375 0.566406 L 14.992188 -17.660156 L 23.53125 -32.363281 C 23.882812 -32.953125 23.652344 -33.410156 22.996094 -33.457031 L 18.410156 -33.792969 C 17.929688 -33.828125 17.605469 -33.628906 17.355469 -33.210938 L 9.625 -19.941406 L 10.613281 -33.480469 C 10.65625 -34.050781 10.371094 -34.378906 9.804688 -34.417969 L 5.609375 -34.726562 C 5.042969 -34.765625 4.714844 -34.484375 4.671875 -33.914062 L 2.25 -0.714844 C 2.207031 -0.144531 2.488281 0.183594 3.058594 0.222656 L 7.25 0.53125 C 7.820312 0.570312 8.148438 0.289062 8.1875 -0.28125 L 8.894531 -9.933594 L 10.738281 -12.917969 L 15.292969 0.457031 C 15.4375 0.90625 15.726562 1.148438 16.25 1.1875 Z M 20.882812 1.523438 "/></g></g></g><g fill="#333333" fill-opacity="1"><g transform="translate(208.992317, 116.633816)"><g><path d="M 26.011719 -29.824219 C 26.097656 -30.253906 25.976562 -30.546875 25.460938 -30.648438 L 9.652344 -33.804688 C 9.269531 -33.882812 8.957031 -33.675781 8.871094 -33.246094 L 2.285156 -0.257812 C 2.199219 0.171875 2.40625 0.480469 2.792969 0.558594 L 18.597656 3.714844 C 19.113281 3.816406 19.339844 3.59375 19.421875 3.164062 L 20.28125 -1.132812 C 20.375 -1.605469 20.246094 -1.851562 19.730469 -1.957031 L 8.992188 -4.101562 L 10.726562 -12.777344 L 18.929688 -11.140625 C 19.359375 -11.054688 19.667969 -11.257812 19.761719 -11.730469 L 20.613281 -15.984375 C 20.707031 -16.457031 20.5 -16.765625 20.070312 -16.851562 L 11.867188 -18.488281 L 13.582031 -27.082031 L 24.320312 -24.9375 C 24.835938 -24.832031 25.066406 -25.101562 25.152344 -25.53125 Z M 26.011719 -29.824219 "/></g></g></g><g fill="#333333" fill-opacity="1"><g transform="translate(228.562912, 120.380655)"><g><path d="M 25.875 -28.335938 C 25.417969 -28.488281 25.125 -28.308594 24.988281 -27.894531 L 19.167969 -10.347656 L 18.917969 -10.429688 L 18.460938 -30.195312 C 18.460938 -30.613281 18.265625 -30.859375 17.890625 -30.984375 L 13.777344 -32.351562 C 13.359375 -32.488281 13.027344 -32.320312 12.890625 -31.90625 L 2.300781 0.0234375 C 2.160156 0.441406 2.328125 0.773438 2.742188 0.910156 L 7.066406 2.34375 C 7.523438 2.496094 7.816406 2.316406 7.953125 1.898438 L 13.800781 -15.726562 L 14.007812 -15.660156 L 14.480469 4.203125 C 14.480469 4.617188 14.675781 4.867188 15.050781 4.992188 L 19.167969 6.355469 C 19.582031 6.496094 19.914062 6.328125 20.050781 5.914062 L 30.640625 -26.015625 C 30.78125 -26.433594 30.613281 -26.765625 30.199219 -26.902344 Z M 25.875 -28.335938 "/></g></g></g></svg>