<?xml version="1.0" encoding="UTF-8" standalone="no"?><svg xmlns="http://www.w3.org/2000/svg" height="79" id="Ebene_1" version="1.1" viewBox="0 0 780 355" width="175">
  <!-- Generator: Adobe Illustrator 30.3.0, SVG Export Plug-In . SVG Version: 2.1.3 Build 182)  -->
  <defs>
    <style>
      .st0 {
        fill-rule: evenodd;
      }

      .st0, .st1, .st2 {
        fill: #172c70;
      }

      .st1 {
        stroke: #172c70;
      }

      .st1, .st3, .st4 {
        stroke-miterlimit: 3.86;
        stroke-width: .25px;
      }

      .st3 {
        fill: #2e92d0;
        stroke: #2e92d0;
      }

      .st4 {
        fill: #0055a4;
        stroke: #0055a4;
      }
    </style>
  </defs>
  <path class="st1" d="M79,189.57c0,13-.33,33.93-.79,37.58-.64,5.07-1.42,6.98-6.34,6.98h-7.61c-1.12,0-1.42.33-1.42,1.12v4.12c0,.64.33.95,2.22.95,3.02,0,12.36-.47,20.29-.47,6.66,0,12.84.47,23.79.47,14.59,0,23.62-1.59,30.28-5.71,7.29-4.6,12.21-15.69,12.21-23.79,0-16.81-10.31-26.33-25.69-31.4l-.47-.33c12.36-6.5,19.34-10.47,19.34-26.16,0-9.36-3.17-16.64-12.21-21.57-5.55-3.17-15.69-4.28-28.07-4.28-5.55,0-15.05.47-20.14.47-11.41,0-18.55-.47-21.09-.47-.95,0-1.27.33-1.27,1.12v3.97c0,.79.33,1.12,1.27,1.12h4.91c7.29,0,9.83.33,10.31,9.52.16,2.86.47,22.2.47,28.07v18.71h0v-.03h.01ZM92.95,182.43h5.07c7.29,0,14.74.16,21.24,2.7,9.36,3.65,15.85,12.05,15.85,24.9,0,18.88-12.21,25.21-25.53,25.21s-16.64-6.5-16.64-21.09v-31.71h.01,0ZM92.95,165.31c0-13.16.16-26.95.33-30.12,0-1.42.95-2.54,2.22-2.86,1.27-.33,3.02-.16,5.24-.16,8.09,0,16.02,1.42,21.72,5.4,5.86,4.28,7.77,10.62,7.77,16.64,0,6.98-2.38,14.11-8.88,19.03-3.81,2.7-10.95,4.12-19.98,4.12-2.7,0-5.4,0-8.4-.33v-11.73h-.03.01Z" />
  <path class="st1" d="M212,211.6v-24.26c0-4.28-.16-7.93-3.48-11.26-2.22-2.07-5.24-4.28-12.69-4.28s-12.69,1.59-19.34,5.55c-6.5,3.81-10.95,9.83-10.95,14.9,0,3.65,1.27,5.07,3.81,5.07,6.5,0,8.4-3.48,8.4-9.04,0-2.86-1.42-5.24.79-7.29,2.22-2.07,7.14-3.33,10.31-3.33,4.6,0,7.77,1.42,9.52,3.5,1.74,2.07,1.91,6.19,2.22,8.88v10.15c-2.54,2.22-10.78,6.03-17.91,9.19-12.52,5.55-15.85,11.9-15.85,19.18,0,9.98,5.71,13.16,9.52,13.16,3.48,0,6.34,0,9.36-.95,7.14-2.38,12.36-5.71,15.69-9.67h.33c1.42,6.5,5.55,10.62,11.26,10.62,8.09,0,11.1-5.4,12.36-7.77.95-1.59.64-2.38.16-2.86l-1.59-1.27c-.64-.47-.95-.16-1.59.64-.79,1.12-3.02,2.38-5.55,2.38-2.86,0-4.76-2.86-4.76-11.9v-9.36h0v.03h-.02ZM200.43,224.45c0,4.28-8.4,9.83-13,9.83s-8.24-2.86-8.24-8.72c0-13.16,15.55-16.34,21.24-20.62v19.5h0Z" />
  <path class="st1" d="M283.97,174.17c-4.76-1.42-10.47-2.38-16.97-2.38-8.88,0-17.43,3.33-23.62,9.98-7.45,7.45-11.1,17.12-11.1,26.95,0,10.62,1.91,17.76,9.98,25.69,7.45,7.61,13.48,7.29,18.71,7.29,8.09,0,18.24-3.48,23.31-8.57l2.07,6.98c.33,1.12,1.12,1.59,2.07,1.27l17.91-6.03c.95-.33,1.27-.79,1.12-1.74l-.33-1.27c-.33-.79-.95-.95-3.17-1.12-2.22-.16-5.55-1.12-6.98-2.7-1.27-1.59-1.59-8.57-1.59-14.43v-35.05c0-20.14.16-43.12.64-51.07.16-1.74,0-2.86-.79-2.86-1.12,0-2.22.33-3.65.47-3.02.64-11.26,2.07-17.43,3.33-.95.16-1.27.47-1.27,1.12v2.7c0,.64.16.95,1.12,1.12,8.88,1.42,9.98,3.33,9.98,9.36v30.91h0v.04h-.01ZM283.97,220.79c0,1.74-.16,3.02-.95,5.4-1.59,4.12-8.4,8.72-17.29,8.72s-21.57-13-21.57-30.91c0-6.02,1.12-14.43,7.29-21.09,4.12-4.28,9.52-5.71,14.43-5.71,9.36,0,14.43,4.28,16.64,8.57,1.42,2.54,1.42,5.55,1.42,7.77v27.27h0l.03-.03h0Z" />
  <path class="st1" d="M449.04,217c0,4.76,0,9.67-.16,14.43-.16,2.54-.79,3.17-2.54,3.17h-7.77c-1.12,0-1.59.33-1.59,1.27v3.17c0,.95.47,1.27,1.27,1.27,1.74,0,7.93-.47,17.13-.47,6.66,0,13.95.47,15.22.47,1.12,0,1.42-.47,1.42-1.59v-2.7c0-.95-.33-1.42-1.59-1.42h-7.29c-1.74,0-2.22-1.12-2.54-4.12-.16-1.74-.16-7.45-.16-13.64v-17.29c0-13.16,0-23.15.33-25.84.16-1.12,0-1.91-.79-1.91-.95,0-1.74.33-3.02.95-6.03,3.33-12.05,5.86-17.13,7.77-.79.33-1.12.64-1.12,1.12v1.42c0,.64.33.95,1.42,1.12,7.93,1.27,8.88,4.12,8.88,9.52v23.31h.03Z" />
  <path class="st1" d="M507.85,178.46c0-8.72.47-41.7.62-50.42.16-2.07-.16-2.86-1.27-2.86-.95,0-1.91.33-3.33,1.27-5.86,3.81-13,6.66-18.55,9.19-.95.33-1.42.64-1.42,1.12v1.27c0,.33.16.47.95.79l3.17,1.12c5.07,1.59,7.61,4.12,7.93,9.52.33,4.12.47,18.55.47,29.81v9.98c0,9.19,0,36.47-.16,41.38-.16,2.86-1.74,3.97-3.48,3.97h-7.61c-1.74,0-2.07.33-2.07,1.42v2.7c0,.95.33,1.59,1.12,1.59,1.42,0,7.77-.47,17.91-.47s16.81.47,17.91.47c.64,0,.95-.64.95-1.59v-2.7c0-.95-.33-1.42-1.74-1.42h-7.14c-3.33,0-3.97-2.22-4.12-4.91-.16-4.91-.16-28.86-.16-37.1v-14.11h0v-.03h.02,0Z" />
  <path class="st1" d="M537.74,212.88c0,11.57,0,24.74-.33,26.95-.16.79,0,1.12.64,1.27l1.91.47c.95.16,1.42,0,2.07-.47l6.34-3.48c3.65,2.22,9.83,4.12,18.71,4.12,18.08,0,32.98-17.43,32.98-36,0-22.67-15.05-33.93-29.02-33.93-7.77,0-16.81,3.02-21.88,7.93v-18.4c0-14.11,0-32.19.16-33.45.16-1.91-.16-2.7-1.27-2.7-.95,0-2.22.64-3.33,1.42-3.97,2.54-12.21,6.66-16.81,8.72-.95.47-1.27.79-1.27,1.27v1.27c0,.47.33.79,2.07,1.27l1.59.47c5.71,1.91,7.45,4.12,7.45,14.74v58.51h0v.02h0ZM549.14,185.12c3.5-3.65,9.19-5.71,15.07-5.71,15.55,0,23.62,14.59,23.62,29.97,0,20.77-11.73,27.27-21.24,27.27-6.81,0-13.48-4.12-15.05-7.93-1.91-5.07-2.38-9.83-2.38-23v-20.62h-.01v.02h-.01Z" />
  <path class="st1" d="M662.12,197.65c2.54,0,4.45-.33,4.45-2.54,0-6.19-5.07-23.31-23.31-23.31-7.93,0-15.85,1.42-22.67,8.4-8.4,8.4-9.98,19.03-9.98,25.21,0,11.1,1.42,16.97,6.98,25.05,5.86,8.57,15.85,11.26,24.9,11.26,14.11,0,22.36-10.93,25.21-17.29.79-1.74.47-2.22,0-2.38l-2.07-1.12c-.47-.16-1.12.16-1.42.79-2.69,5.24-9.52,10.78-19.18,10.78-12.69,0-22.52-11.73-22.52-27.27,0-3.65.16-6.19.47-7.61h39.17l-.03.03h0ZM623.59,192.9c3.02-11.73,9.67-16.34,16.64-16.34,10.31,0,12.21,10.47,12.21,14.11,0,1.43-1.27,2.22-4.28,2.22h-24.58.01Z" />
  <path class="st1" d="M698.88,178.46c0-8.72.47-41.7.64-50.42.16-2.07-.16-2.86-1.27-2.86-.95,0-1.91.33-3.33,1.27-5.86,3.81-13,6.66-18.55,9.19-.95.33-1.42.64-1.42,1.12v1.27c0,.33.16.47.95.79l3.17,1.12c5.07,1.59,7.61,4.12,7.93,9.52.33,4.12.47,18.55.47,29.81v9.98c0,9.19,0,36.47-.16,41.38-.16,2.86-1.74,3.97-3.48,3.97h-7.61c-1.74,0-2.07.33-2.07,1.42v2.7c0,.95.33,1.59,1.12,1.59,1.42,0,7.77-.47,17.91-.47s16.81.47,17.91.47c.62,0,.95-.64.95-1.59v-2.7c0-.95-.33-1.42-1.74-1.42h-7.14c-3.33,0-3.97-2.22-4.12-4.91-.16-4.91-.16-28.86-.16-37.1v-14.11h-.01v-.03h.01Z" />
  <path class="st2" d="M77.91,305.35v.98c0,5.76,2.3,12.55,12.48,12.55,8.28,0,13.57-3.63,13.57-12.36,0-5.63-2.52-8.8-8.35-10.87l-4.42-1.61c-4.37-1.68-6.15-3.45-6.15-6.96,0-4.37,2.7-5.93,5.53-5.93,4.08,0,5.76,2.18,5.76,5.93v.86h6.55v-.92c0-4.25-1.09-10.8-11.62-10.8-7.7,0-12.77,4.13-12.77,11.62,0,5.86,2.59,8.97,8.57,11.27l4.49,1.55c3.68,1.09,5.86,2.99,5.86,7.31,0,3.04-2.07,5.98-6.21,5.98-4.55,0-6.72-2.52-6.72-7.53v-1.04h-6.57v-.03Z" />
  <path class="st2" d="M121.03,291.71h4.25v19.2c0,6.32,2.07,7.48,6.27,7.48,1.96,0,3.68-.17,5.01-.52v-4.6c-.57.12-1.33.17-2.24.17-2.13,0-2.82-.86-2.82-3.28v-18.46h5.06v-4.6h-5.06v-8.8h-6.21v8.8h-4.25v4.6h0Z" />
  <path class="st0" d="M175.03,293.91c0-5.46-4.37-7.59-9.83-7.59-8.16,0-10.87,3.63-10.87,10.18h5.86c0-2.99.57-5.93,4.72-5.93,3.28,0,4.25,1.78,4.25,4.6s-1.38,3.34-3.63,3.97l-4.84,1.33c-4.2,1.38-7.19,2.82-7.19,9.72,0,5.93,3.11,8.68,8.05,8.68,3.63,0,6.03-1.5,7.7-4.55h.12c.17,2.99,2.47,4.08,5.24,4.08,1.21,0,2.3-.4,3.04-.75v-4.03c-.23.12-.62.17-1.04.17-.92,0-1.61-1.04-1.61-2.18v-17.71h.03ZM169.17,306.89c0,4.55-1.83,7.36-5.58,7.36-2.59,0-3.86-2.07-3.86-4.65,0-2.3.75-4.13,2.52-5.01,1.83-.86,5.29-1.61,6.9-2.87v5.17h.02Z" />
  <path class="st0" d="M212.15,318.05h5.86v-41.05h-6.21v13.74h-.12c-1.14-2.76-3.68-4.42-7.01-4.42-4.72,0-9.54,2.13-9.54,15.87,0,10.63,2.87,16.67,10.11,16.67,4.42,0,5.98-2.59,6.79-4.6h.12v3.8h0ZM212.15,302.93c0,6.62-.98,10.99-5.24,10.99s-5.24-4.42-5.24-11.44c0-8.35,1.27-11.21,4.84-11.21,4.77,0,5.63,4.25,5.63,11.67h.01Z" />
  <path class="st2" d="M236.2,291.71h4.25v19.2c0,6.32,2.07,7.48,6.27,7.48,1.96,0,3.68-.17,5.01-.52v-4.6c-.57.12-1.33.17-2.24.17-2.13,0-2.82-.86-2.82-3.28v-18.46h5.06v-4.6h-5.06v-8.8h-6.21v8.8h-4.25v4.6h0Z" />
  <path class="st0" d="M316.89,318.05h5.86v-41.05h-6.21v13.74h-.12c-1.14-2.76-3.68-4.42-7.01-4.42-4.72,0-9.54,2.13-9.54,15.87,0,10.63,2.87,16.67,10.11,16.67,4.42,0,5.98-2.59,6.79-4.6h.12v3.8h0ZM316.89,302.93c0,6.62-.98,10.99-5.24,10.99s-5.24-4.42-5.24-11.44c0-8.35,1.27-11.21,4.84-11.21,4.77,0,5.63,4.25,5.63,11.67h.01,0Z" />
  <path class="st0" d="M365.2,303.38v-3.28c0-8.62-2.3-13.81-10.93-13.81-9.72,0-11.44,8.62-11.44,16.73,0,14.31,6.27,15.82,11.32,15.82,6.72,0,10.87-4.32,10.87-11.15h-5.86c0,1.83-.52,6.9-4.94,6.9-4.65,0-5.17-5.29-5.17-9.43v-1.78h16.16-.01ZM349.04,299.13v-.62c0-4.03,1.21-7.93,5.17-7.93,3.51,0,4.77,2.99,4.77,6.9v1.66h-9.95.01Z" />
  <path class="st2" d="M385.28,318.05h6.21v-18.51c0-5.76,3.39-7.01,6.21-7.01,1.04,0,2.13.23,2.59.35v-6.32c-.4-.12-.81-.23-1.5-.23-3.51,0-5.8,2.18-7.19,5.63h-.12v-4.84h-6.21v30.94h.01Z" />
  <path class="st0" d="M473.17,321.74l3.91-3.51-4.2-4.43c1.83-2.99,3.21-8.68,3.21-16.28,0-14.66-4.13-21.33-13.57-21.33s-13.57,6.67-13.57,21.33,4.13,21.33,13.57,21.33c2.59,0,4.77-.4,6.45-1.38l4.2,4.25h0v.02h0ZM461.79,310.46l3.11,3.04c-.75.29-1.5.4-2.35.4-3.91,0-7.01-2.42-7.01-16.56s3.11-16.21,7.01-16.21,7.01,2.42,7.01,16.21c0,5.76-.4,9.59-1.33,12.08l-2.7-2.7-3.73,3.73h0Z" />
  <path class="st2" d="M512.27,318.05h5.86v-30.94h-6.21v21.62c0,3.45-2.42,5.17-5.06,5.17s-4.2-1.16-4.2-4.6v-22.19h-6.21v21.62c0,8,3.11,10.11,7.7,10.11,3.45,0,6.38-1.66,7.93-4.42h.17v3.63h.03-.01Z" />
  <path class="st0" d="M560.61,303.38v-3.28c0-8.62-2.3-13.81-10.93-13.81-9.72,0-11.44,8.62-11.44,16.73,0,14.31,6.27,15.82,11.32,15.82,6.72,0,10.87-4.32,10.87-11.15h-5.86c0,1.83-.52,6.9-4.94,6.9-4.65,0-5.17-5.29-5.17-9.43v-1.78h16.16-.01ZM544.43,299.13v-.62c0-4.03,1.21-7.93,5.17-7.93,3.51,0,4.77,2.99,4.77,6.9v1.66h-9.95.01Z" />
  <polygon class="st2" points="580.98 318.05 587.18 318.05 587.18 276.99 580.98 276.99 580.98 318.05 580.98 318.05" />
  <polygon class="st2" points="608.71 318.05 614.91 318.05 614.91 276.99 608.71 276.99 608.71 318.05 608.71 318.05" />
  <path class="st0" d="M657.64,303.38v-3.28c0-8.62-2.3-13.81-10.93-13.81-9.72,0-11.44,8.62-11.44,16.73,0,14.31,6.27,15.82,11.32,15.82,6.72,0,10.87-4.32,10.87-11.15h-5.86c0,1.83-.52,6.9-4.94,6.9-4.65,0-5.17-5.29-5.17-9.43v-1.78h16.16-.01ZM641.48,299.13v-.62c0-4.03,1.21-7.93,5.17-7.93,3.51,0,4.77,2.99,4.77,6.9v1.66h-9.95.01Z" />
  <path class="st2" d="M677.72,318.05h6.21v-20.76c0-4.03,2.42-6.03,4.94-6.03,3.11,0,4.32,1.55,4.32,5.58v21.22h6.21v-23.35c0-6.27-2.99-8.4-7.7-8.4-3.45,0-6.38,1.66-7.93,4.42h-.17v-3.63h-5.86v30.94h-.03,0Z" />
  <path class="st4" d="M473.17,87.8c-9.7,12.52-27.59,38.52-53.59,77.99-30.67,46.72-54.3,78.09-70.92,94.11-8.75,8.53-13.61,12.87-14.6,13-.6.09-.94-.17-1.01-.77-.01-.1.86-1.79,2.63-5.08,14.4-25.26,28.7-54.38,36.84-87.37,8.24-33.01,10.89-59.96,7.96-80.86-1.98-14.07-5.51-26.03-12.88-33.16-3.63-3.51-7.83-5.29-13.29-5.29-7.05,0-21.41-.48-41.47,22.15-6.64,7.5-8.7,12.65-12.49,22.57-2.2,5.69-4.93,10.41-11.14,10-3.78-.26-5.19-5.76-.88-11.43,4.29-5.67,21.78-26.13,37.58-37.82,16.74-12.39,24.97-10.96,29.09-11.02,10.32-.14,17.64,6.34,19.93,8.29,9.23,7.9,17.94,25.13,20.62,44.12,2.86,20.29.13,42.43-8.16,66.43s-23.09,52.6-44.4,85.83c-.83,1.34-1.04,2.55-1.04,2.55.73-.35,7.45-8.59,16.9-19.36,7.28-8.13,14.66-17.63,22.17-28.54,6.73-9.78,24.4-36.4,52.99-79.87,16.87-25.7,32.05-46.19,45.53-61.49,0,0,31.63-38.4,67.73-36.52,12.86.66,22.13,8.96,25.58,13.81,3.45,4.85,3.16,9.39-1.56,9.74-6.29.47-7.31-4.39-11.62-8.8-4.89-5.01-8.98-7.53-17.76-8.14-16.47-1.14-31.27,5.66-46.62,20.85-15.37,15.21-22.1,24.09-22.1,24.09h-.02,0Z" />
  <path class="st3" d="M385.89,172.39c1.22-3.22,2.44-6.58,3.77-10.05,8.19-21.67,13.96-40,17.32-54.99,0,0,11.23-37.64-5.89-58.8-6.1-7.54-15.26-9.53-19.75-9.48s-7.12,2.24-5.24,5.27c2.5,4.04,5.92,2.51,10.52,3.19,5.21.77,8.57,2.15,12.83,7.22,7.98,9.54,10.4,21.57,7.94,37.66-2.47,16.11-4.9,24.15-4.9,24.15-3.34,11.47-9.45,32.31-22.95,67.21,0,0-3.55,11.12-3.51,11.01,4.84-9.44,9.88-22.36,9.88-22.36h-.01v-.03h0Z" />
  <path class="st3" d="M578.92,66.4s-.34-.12.06.43c.64,1.25,1.43,3.55,1.17,4.78-.38,1.78-1.48,3.61-3.42,5.14-1.76,1.37-2.82,3.26-3.13,4.73s-.53,7.72,6.11,9.14c5.95,1.27,8.65-4.65,8.81-5.4s1.6-5.43-4.19-12.43c-2.15-2.59-5.41-6.4-5.41-6.4h-.01.01Z" />
  <path class="st3" d="M464.33,130.61s.43,0-.25.47c-1.25,1.17-3.12,3.46-3.33,5.01-.31,2.21.19,4.76,1.77,7.29,1.43,2.3,1.87,4.91,1.61,6.73s-2.6,9.07-10.82,7.92c-7.36-1.04-7.97-8.93-7.84-9.85s.44-6.88,9.98-12.49c3.54-2.08,8.85-5.07,8.85-5.07h.03Z" />
<desc property="dc:rights">SBV</desc></svg>